<svg width="514" height="538" viewBox="0 0 514 538" fill="none" xmlns="http://www.w3.org/2000/svg">
<g clip-path="url(#clip0_290_338)">
<path d="M300.527 525.679H287.203L279.479 449.103H300.069L300.527 525.679Z" fill="#ED9DA0"/>
<path d="M274.235 537.993C272.833 537.993 271.584 537.958 270.647 537.863C267.111 537.513 263.733 534.702 262.038 533.063C261.667 532.703 261.409 532.228 261.3 531.704C261.19 531.179 261.235 530.631 261.427 530.135C261.567 529.777 261.78 529.458 262.05 529.201C262.32 528.943 262.641 528.754 262.988 528.648L272.336 525.775L287.477 514.785L287.649 515.114C288.472 516.692 289.157 518.349 289.694 520.064C289.794 520.364 289.833 520.683 289.808 521C289.783 521.317 289.694 521.625 289.548 521.902C289.375 522.179 289.132 522.398 288.847 522.532C289.121 522.841 289.981 523.464 292.626 523.917C296.494 524.576 297.297 520.27 297.335 520.092L297.361 519.948L297.476 519.866C299.317 518.59 300.445 518.015 300.834 518.14C301.076 518.215 301.484 518.352 302.579 530.076C303.114 531.902 303.236 533.838 302.936 535.725C302.369 538.537 290.969 537.57 288.688 537.343C288.624 537.35 280.092 538.001 274.241 538.001L274.235 537.993Z" fill="#262626"/>
<path d="M265.667 525.679H252.349L244.625 449.103H265.214L265.667 525.679Z" fill="#ED9DA0"/>
<path d="M236.927 537.995C235.406 537.995 234.051 537.958 233.035 537.857C229.199 537.478 225.536 534.428 223.697 532.651C223.294 532.26 223.014 531.745 222.895 531.176C222.777 530.607 222.825 530.013 223.033 529.474C223.185 529.086 223.417 528.74 223.71 528.46C224.003 528.181 224.35 527.976 224.727 527.861L234.868 524.744L251.291 512.817L251.478 513.174C252.371 514.886 253.114 516.684 253.697 518.544C253.805 518.869 253.847 519.215 253.82 519.559C253.792 519.904 253.696 520.237 253.537 520.537C253.35 520.839 253.086 521.076 252.777 521.222C253.074 521.556 254.007 522.233 256.876 522.724C261.072 523.438 261.943 518.768 261.984 518.574L262.012 518.418L262.137 518.329C264.126 516.948 265.358 516.321 265.78 516.455C266.042 516.536 266.486 516.685 267.674 529.403C268.253 531.383 268.385 533.484 268.059 535.531C267.444 538.58 255.077 537.533 252.602 537.286C252.533 537.294 243.277 538 236.932 538L236.927 537.995Z" fill="#262626"/>
<path d="M485.113 65.0057H15.4398V332.738H485.113V65.0057Z" fill="#FFDCD7"/>
<path d="M485.113 115.117V112.493H393.686V65.0036H391.247V112.493H299.819V65.0036H297.38V112.493H205.952V65.0036H203.513V112.493H112.084V65.0036H109.645V112.493H15.4398V115.117H109.644V167.581H15.4398V170.205H109.644V222.669H15.4398V225.293H109.644V277.747H15.4398V280.371H109.644V332.73H112.083V280.38H203.511V332.738H205.95V280.38H297.379V332.738H299.818V280.38H391.246V332.738H393.685V280.38H485.112V277.756H393.686V225.299H485.113V222.675H393.686V170.21H485.113V167.586H393.686V115.117H485.113ZM203.511 277.751H112.084V225.299H203.511V277.751ZM203.511 222.671H112.084V170.21H203.511V222.671ZM203.511 167.582H112.084V115.117H203.511V167.582ZM297.379 277.751H205.952V225.299H297.379V277.751ZM297.379 222.672H205.952V170.21H297.379V222.672ZM297.379 167.583H205.952V115.117H297.379V167.583ZM391.246 277.752H299.819V225.299H391.246V277.752ZM391.246 222.673H299.819V170.21H391.246V222.673ZM391.246 167.583H299.819V115.121H391.246V167.583Z" fill="white"/>
<path d="M161.694 127.88H130.272V160.609H161.694V127.88Z" fill="#F26E35"/>
<path d="M450.98 233.857H419.559V266.586H450.98V233.857Z" fill="#F26E35"/>
<path d="M171.455 288.278H140.033V321.007H171.455V288.278Z" fill="#F26E35"/>
<path d="M180.741 121.807H149.32V154.536H180.741V121.807Z" fill="#E73858"/>
<path d="M328.446 257.857L365.733 222.114L376.734 227.978L332.013 278.445L328.446 257.857Z" fill="#ED9DA0"/>
<path d="M370.641 234.398C375.542 234.398 379.515 230.124 379.515 224.851C379.515 219.577 375.542 215.303 370.641 215.303C365.74 215.303 361.767 219.577 361.767 224.851C361.767 230.124 365.74 234.398 370.641 234.398Z" fill="#ED9DA0"/>
<path d="M300.955 317.588C300.955 317.588 323.14 315.814 316.038 354.855C308.936 393.896 303.316 502.527 303.316 502.527H280.905L273.03 360.065L267.071 502.527L245.014 500.695L233.514 347.757C233.514 347.757 228.184 335.46 233.514 326.971C238.845 318.482 300.955 317.588 300.955 317.588Z" fill="#262626"/>
<path d="M286.757 213.521L292.919 209.97C292.919 209.97 308.094 208.578 314.287 227.758L330.711 254.449L357.333 229.625L368.869 238.218L335.316 281.3C335.316 281.3 332.395 293.241 321.365 283.218C310.335 273.195 291.194 241.208 291.194 241.208L286.757 213.521Z" fill="#F45356"/>
<path d="M264.407 136.059C239.101 136.059 232.017 165.968 232.017 182.842C232.017 199.716 246.519 197.163 264.407 197.163C272.085 197.163 279.134 197.629 284.688 196.832L287.358 189.817L289.507 195.63C294.064 193.829 296.8 190.167 296.8 182.842C296.796 165.968 290.586 136.059 264.407 136.059Z" fill="#262626"/>
<path d="M255.431 189.524H274.237L278.047 216.257H255.431V189.524Z" fill="#ED9DA0"/>
<path d="M264.298 197.135C276.335 197.135 286.093 186.636 286.093 173.685C286.093 160.734 276.335 150.235 264.298 150.235C252.261 150.235 242.503 160.734 242.503 173.685C242.503 186.636 252.261 197.135 264.298 197.135Z" fill="#ED9DA0"/>
<path d="M239.116 171.384H247.736L251.539 159.927L252.3 171.384H256.42L258.638 164.701L259.081 171.384H289.697C289.697 164.8 287.266 158.487 282.939 153.831C278.612 149.176 272.744 146.561 266.625 146.561H262.188C256.069 146.561 250.2 149.176 245.874 153.831C241.547 158.487 239.116 164.8 239.116 171.384Z" fill="#262626"/>
<path d="M384.839 188.64H353.417V221.369H384.839V188.64Z" fill="#E73858"/>
<path d="M307.851 308.95C304.504 308.996 294.425 244.648 294.425 244.648L292.916 209.968L281.902 209.573V208.794C281.902 207.229 281.324 205.727 280.296 204.621C279.267 203.514 277.872 202.892 276.417 202.892H255.442C254.049 202.893 252.708 203.464 251.693 204.491C250.677 205.517 250.063 206.921 249.975 208.417L241.339 208.103L226.384 259.234C226.384 259.234 240.167 306.745 233.515 327.68C233.515 327.68 298.327 333.669 310.735 320.377C310.731 320.378 311.197 308.904 307.851 308.95Z" fill="#F45356"/>
<path d="M245.05 214.476L241.337 208.105C241.337 208.105 229.26 204.893 224.288 213.503C219.316 222.114 189.994 258.804 204.701 268.77C219.407 278.736 219.784 274.502 219.784 274.502L236.904 248.676L245.05 214.476Z" fill="#F45356"/>
<path d="M282.79 247.834H251.369V280.563H282.79V247.834Z" fill="#E73858"/>
<path d="M227.261 259.664L216.329 258.421C215.639 260.006 215.293 261.738 215.317 263.488C215.341 265.238 215.734 266.959 216.467 268.521C217.201 270.083 218.255 271.445 219.549 272.504C220.844 273.563 222.346 274.291 223.941 274.634L267.195 283.922L262.683 268.971L227.261 259.664Z" fill="#ED9DA0"/>
<path d="M267.325 284.092C272.226 284.092 276.199 279.818 276.199 274.544C276.199 269.271 272.226 264.997 267.325 264.997C262.424 264.997 258.451 269.271 258.451 274.544C258.451 279.818 262.424 284.092 267.325 284.092Z" fill="#ED9DA0"/>
<path d="M256.247 284.386L223.294 276.284C220.907 275.69 218.702 274.442 216.893 272.663C215.085 270.883 213.734 268.631 212.972 266.125L211.64 261.705L220.192 254.464L259.373 266.246L256.247 284.386Z" fill="#F45356"/>
<path d="M350.221 537.999H186.913C186.676 537.999 186.484 537.572 186.484 537.044C186.484 536.517 186.677 536.089 186.913 536.089H350.221C350.458 536.089 350.65 536.517 350.65 537.044C350.65 537.572 350.457 537.999 350.221 537.999Z" fill="white"/>
</g>
<defs>
<clipPath id="clip0_290_338">
<rect width="514" height="538" fill="white"/>
</clipPath>
</defs>
</svg>
