<svg width="805" height="185" viewBox="0 0 805 185" fill="none" xmlns="http://www.w3.org/2000/svg">
<path opacity="0.922" fill-rule="evenodd" clip-rule="evenodd" d="M674.23 0.252112C680.251 -0.693833 685.32 1.02217 689.442 5.40011C694.263 16.8669 698.83 28.4499 703.154 40.1491C704.619 45.5047 703.261 50.0092 699.083 53.6626C691.837 58.7154 684.767 58.358 677.873 52.5901C677.303 51.7321 676.728 50.8741 676.159 50.0161C671.874 38.8574 667.589 27.7034 663.304 16.5541C662.352 8.02216 665.994 2.58802 674.23 0.252112Z" fill="#FEFFFE"/>
<path opacity="0.921" fill-rule="evenodd" clip-rule="evenodd" d="M616.811 1.11007C622.318 -0.165772 627.46 0.763871 632.237 3.89857C633.57 5.21131 634.641 6.71281 635.451 8.40307C639.308 18.4129 643.164 28.4232 647.021 38.4331C649.951 46.9389 647.308 53.0165 639.093 56.6656C632.28 58.9328 626.495 57.4313 621.739 52.1611C616.404 39.636 611.618 26.9093 607.384 13.9801C607.569 10.7789 608.713 7.99038 610.812 5.61457C609.227 4.57897 609.441 4.36447 611.455 4.97107C613.37 3.44727 615.157 2.16027 616.811 1.11007Z" fill="#FEFFFE"/>
<path opacity="0.982" fill-rule="evenodd" clip-rule="evenodd" d="M259.442 5.40009C284.765 3.54037 302.263 14.2654 311.933 37.5751C319.741 60.4386 314.67 79.8153 296.722 95.7046C293.937 97.5995 291.08 99.3871 288.152 101.067C296.767 119.033 305.266 137.052 313.647 155.121C317.398 165.276 314.184 172.354 304.006 176.357C297.649 177.905 292.435 176.116 288.366 170.994C287.403 169.78 286.546 168.493 285.795 167.133C276.199 146.631 266.487 126.183 256.657 105.786C246.905 105.36 237.121 105.217 227.305 105.357C227.376 110.793 227.305 116.227 227.09 121.659C223.955 130.418 217.742 134.207 208.451 133.028C202.831 131.406 199.189 127.759 197.524 122.088C197.381 121.23 197.238 120.372 197.095 119.514C197.024 108.646 196.953 97.7779 196.881 86.9101C196.821 75.1696 197.035 63.4438 197.524 51.7321C199.808 44.3662 204.807 40.5052 212.521 40.1491C220.374 40.7136 225.23 44.8608 227.09 52.5901C227.305 59.8818 227.376 67.1748 227.305 74.4691C242.16 74.5407 257.015 74.4691 271.869 74.2546C278.829 72.5768 283.043 68.2151 284.509 61.1701C286.595 49.3953 282.238 41.1727 271.44 36.5026C267.459 36.0092 263.46 35.7235 259.442 35.6446C251.068 34.0508 246.497 28.9745 245.73 20.4151C246.07 14.7969 248.641 10.5785 253.443 7.75959C255.379 6.66349 257.379 5.87713 259.442 5.40009Z" fill="#FEFEFE"/>
<path opacity="0.987" fill-rule="evenodd" clip-rule="evenodd" d="M355.426 5.40015C363.999 5.61422 369.356 9.90422 371.495 18.2701C371.781 66.89 371.781 115.51 371.495 164.13C369.481 172.152 364.339 176.442 356.069 177C347.68 176.181 342.68 171.608 341.071 163.272C340.785 115.224 340.785 67.1761 341.071 19.1281C342.038 13.4435 345.109 9.36797 350.284 6.90165C351.99 6.18522 353.704 5.68457 355.426 5.40015Z" fill="#FEFEFE"/>
<path opacity="0.988" fill-rule="evenodd" clip-rule="evenodd" d="M454.838 5.40015C463.841 5.47522 469.339 9.90808 471.336 18.6991C471.623 66.89 471.623 115.081 471.336 163.272C469.69 171.779 464.548 176.357 455.91 177C447.721 176.241 442.72 171.809 440.912 163.701C440.625 115.081 440.625 66.461 440.912 17.8411C442.283 12.3186 445.643 8.52884 450.982 6.47265C452.323 6.11186 453.609 5.75407 454.838 5.40015Z" fill="#FEFEFE"/>
<path opacity="0.98" fill-rule="evenodd" clip-rule="evenodd" d="M50.3342 5.82918C68.6157 4.32854 84.7561 9.4049 98.7547 21.0587C110.686 32.2985 116.043 46.0981 114.823 62.4572C112.173 69.2478 107.174 72.966 99.826 73.6112C93.006 72.7056 88.5778 68.9874 86.5425 62.4572C86.8214 50.1736 81.3225 41.8081 70.0452 37.3607C61.9928 34.5868 53.8513 34.3006 45.6207 36.5027C35.254 40.3062 29.8262 47.7425 29.3377 58.8107C29.4487 62.464 31.02 65.3242 34.0512 67.3907C42.9919 71.4928 46.2056 78.2851 43.6925 87.7682C39.4902 95.0535 33.2769 97.6991 25.0527 95.7047C3.48331 84.6086 -4.15834 67.2341 2.12797 43.5812C7.87287 26.5323 19.2281 15.0209 36.1937 9.04668C40.8717 7.55376 45.5852 6.48126 50.3342 5.82918Z" fill="#FEFEFE"/>
<path opacity="0.976" fill-rule="evenodd" clip-rule="evenodd" d="M153.603 5.8292C164.265 4.99308 170.479 9.85494 172.242 20.4152C172.528 67.6052 172.528 114.795 172.242 161.985C171.169 171.282 165.955 176.288 156.602 177C147.801 175.838 142.73 170.835 141.39 161.985C141.105 114.795 141.105 67.6052 141.39 20.4152C141.663 15.3624 143.877 11.4302 148.032 8.6177C149.862 7.55936 151.719 6.62972 153.603 5.8292Z" fill="#FEFEFE"/>
<path opacity="0.01" fill-rule="evenodd" clip-rule="evenodd" d="M583.817 16.5542C584.717 16.4259 585.574 16.5688 586.388 16.9832C585.959 17.126 585.531 17.2693 585.102 17.4122C584.447 17.3521 584.018 17.066 583.817 16.5542Z" fill="#FEFFFE"/>
<path opacity="0.954" fill-rule="evenodd" clip-rule="evenodd" d="M572.247 19.5571C580.774 19.7999 589.344 19.8716 597.957 19.7716C605.293 21.5065 609.291 26.1539 609.955 33.7141C609.145 41.4614 605.002 46.3949 597.529 48.5146C606.6 67.0401 615.384 85.7016 623.881 104.499C626.945 116.741 622.232 123.891 609.741 125.949C603.755 125.308 599.328 122.305 596.457 116.94C589.323 101.223 581.965 85.636 574.39 70.1791C557.417 105.878 540.208 141.483 522.755 177C518.226 183.268 512.158 185.344 504.544 183.221C497.195 179.304 494.269 173.225 495.76 164.988C517.485 118.472 539.625 72.1397 562.177 25.9921C564.847 22.694 568.202 20.549 572.247 19.5571Z" fill="#FEFFFE"/>
<path opacity="0.949" fill-rule="evenodd" clip-rule="evenodd" d="M717.08 19.9862C724.57 18.9339 730.925 21.0789 736.148 26.4212C758.58 71.3362 781.291 116.238 804.28 161.127C805.137 165.846 805.137 170.565 804.28 175.284C801.953 179.759 798.311 182.406 793.353 183.221C759.501 183.508 725.65 183.508 691.798 183.221C684.244 180.325 680.885 174.817 681.729 166.704C683.4 160.312 687.471 156.378 693.941 154.907C696.028 154.799 698.102 154.585 700.154 154.263C723.066 154.761 745.991 154.834 768.928 154.478C750.739 119.561 732.956 84.4542 715.58 49.1582C714.26 47.96 712.761 47.0304 711.081 46.3697C703.265 38.7747 703.124 31.0527 710.652 23.2037C712.684 21.7927 714.826 20.7202 717.08 19.9862Z" fill="#FEFFFE"/>
<path opacity="0.896" fill-rule="evenodd" clip-rule="evenodd" d="M643.807 70.6082C648.135 71.0209 651.49 73.0226 653.877 76.6142C656.473 82.1251 658.903 87.7021 661.161 93.3452C661.911 97.6326 660.128 99.9921 655.805 100.424C650.663 100.71 645.521 100.71 640.379 100.424C637.272 99.4533 634.77 97.6656 632.88 95.0612C630.283 89.2675 627.858 83.4044 625.596 77.4722C624.889 74.4293 625.96 72.3559 628.809 71.2517C633.883 71.1792 638.883 70.9647 643.807 70.6082Z" fill="#FEFFFE"/>
<path opacity="0.893" fill-rule="evenodd" clip-rule="evenodd" d="M691.37 70.6082C697.086 70.5365 702.798 70.6082 708.51 70.8227C712.225 71.7884 715.156 73.8617 717.294 77.0432C720.11 82.2538 722.826 87.5447 725.436 92.9162C726.34 96.6167 724.982 98.9762 721.365 99.9947C715.936 100.281 710.511 100.281 705.082 99.9947C701.303 98.9295 698.372 96.7133 696.298 93.3452C693.491 88.0153 690.92 82.5811 688.585 77.0432C687.831 74.0753 688.756 71.9303 691.37 70.6082Z" fill="#FEFFFE"/>
<path opacity="0.893" fill-rule="evenodd" clip-rule="evenodd" d="M660.09 71.0371C665.806 70.9655 671.518 71.0371 677.23 71.2516C680.722 72.1766 683.507 74.1071 685.585 77.0431C688.653 82.9663 691.293 89.0435 693.513 95.2756C693.35 98.0165 691.919 99.7325 689.228 100.424C683.657 100.71 678.087 100.71 672.516 100.424C668.78 99.3794 665.994 97.1628 664.16 93.7741C661.302 87.9093 658.804 81.9033 656.662 75.7561C656.876 73.4507 658.02 71.8775 660.09 71.0371Z" fill="#FEFFFE"/>
<path opacity="0.966" fill-rule="evenodd" clip-rule="evenodd" d="M405.561 75.7561C415.356 75.4777 421.141 80.1967 422.915 89.9131C423.078 98.9118 418.72 104.418 409.846 106.43C401.481 107.356 395.838 103.852 392.92 95.9191C390.615 87.8762 393.117 81.799 400.419 77.6866C402.163 76.9874 403.877 76.3439 405.561 75.7561Z" fill="#FEFEFE"/>
<path opacity="0.964" fill-rule="evenodd" clip-rule="evenodd" d="M61.4753 78.3302C69.702 78.3388 74.9156 82.3426 77.1155 90.3422C78.182 98.9977 74.5398 104.646 66.1888 107.288C56.742 108.672 50.8146 104.739 48.406 95.4902C47.4115 89.7519 49.197 85.1045 53.7623 81.5477C56.2347 80.0912 58.8057 79.0187 61.4753 78.3302Z" fill="#FEFEFE"/>
<path opacity="0.979" fill-rule="evenodd" clip-rule="evenodd" d="M91.4701 92.4871C95.8155 91.8938 99.672 92.9663 103.04 95.7046C111.084 103.207 115.226 112.502 115.466 123.59C114.453 146.185 103.74 162.2 83.3286 171.638C64.6447 179.201 46.2192 178.63 28.0521 169.922C8.7379 158.72 -0.474844 141.916 0.413865 119.514C3.05428 112.681 8.05316 108.963 15.4114 108.36C22.1242 109.073 26.5524 112.648 28.6949 119.085C29.4027 137.596 39.044 147.18 57.6186 147.828C69.7859 148.141 78.7128 142.993 84.3999 132.384C85.7188 128.768 86.1473 125.05 85.6854 121.23C83.8287 118.227 81.9716 115.224 80.1149 112.221C77.777 105.231 79.5621 99.5819 85.4711 95.2756C87.4624 94.2057 89.4622 93.276 91.4701 92.4871Z" fill="#FEFEFE"/>
<path opacity="0.896" fill-rule="evenodd" clip-rule="evenodd" d="M717.08 104.07C723.996 102.991 729.923 104.85 734.863 109.647C738.951 116.543 742.448 123.693 745.361 131.097C744.607 135.061 742.178 136.846 738.077 136.46C733.505 136.747 728.937 136.747 724.365 136.46C720.701 135.662 717.77 133.731 715.581 130.668C712.62 125.172 709.766 119.595 707.011 113.937C706.047 111.733 705.764 109.446 706.154 107.073C706.488 106.307 706.989 105.663 707.653 105.143C710.841 104.688 713.982 104.331 717.08 104.07Z" fill="#FEFFFE"/>
<path opacity="0.897" fill-rule="evenodd" clip-rule="evenodd" d="M651.52 104.499C655.115 104.358 658.689 104.572 662.232 105.143C665.06 106.095 667.417 107.739 669.302 110.076C672.126 115.874 674.839 121.738 677.444 127.665C679.021 134.246 676.377 137.318 669.517 136.889C665.232 137.176 660.947 137.176 656.662 136.889C651.678 135.619 648.319 132.543 646.592 127.665C644.737 123.089 642.877 118.513 641.021 113.937C640.387 111.974 640.246 109.972 640.593 107.931C640.923 106.885 641.566 106.098 642.521 105.572C645.551 105.102 648.55 104.745 651.52 104.499Z" fill="#FEFFFE"/>
<path opacity="0.899" fill-rule="evenodd" clip-rule="evenodd" d="M690.513 104.499C696.041 104.674 700.253 107.105 703.154 111.792C705.866 117.512 708.583 123.232 711.296 128.952C712.504 133.182 711.004 135.825 706.796 136.889C701.226 137.176 695.655 137.176 690.085 136.889C686.305 135.825 683.375 133.607 681.301 130.239C677.971 123.65 675.186 116.857 672.945 109.862C672.941 107.438 674.08 105.865 676.373 105.143C681.159 105.07 685.873 104.855 690.513 104.499Z" fill="#FEFFFE"/>
<path opacity="0.965" fill-rule="evenodd" clip-rule="evenodd" d="M211.879 146.112C221.384 147.189 226.526 152.483 227.305 161.985C226.962 168.845 223.534 173.491 217.021 175.928C207.303 178.463 200.804 174.958 197.524 165.417C195.887 156.614 199.244 150.535 207.594 147.185C209.089 146.867 210.518 146.511 211.879 146.112Z" fill="#FEFEFE"/>
<path opacity="0.919" fill-rule="evenodd" clip-rule="evenodd" d="M636.094 153.834C646.887 153.337 653.028 158.485 654.519 169.278C653.778 176.099 650.208 180.745 643.807 183.221C634.011 185.421 627.515 181.775 624.31 172.281C622.96 166.301 624.605 161.367 629.238 157.481C631.397 155.949 633.681 154.735 636.094 153.834Z" fill="#FEFFFE"/>
</svg>
