<svg width="901" height="604" viewBox="0 0 901 604" fill="none" xmlns="http://www.w3.org/2000/svg">
<g clip-path="url(#clip0_1_2)">
<rect width="901" height="604" fill="white"/>
<path d="M901 0H0V604H901V0Z" fill="url(#paint0_linear_1_2)"/>
<path d="M902.14 214.626C902.14 214.626 831.843 220.899 803.074 189.981C789.484 175.375 794.308 165.329 778.937 141.102C773.015 131.771 747.998 92.3362 708.282 83.0566C658.563 71.4403 631.709 117.802 590.849 102.626C563.636 92.5191 567.932 69.1275 530.28 55.4564C509.742 47.9999 497.531 49.3515 483.784 39.0597C467.598 26.9405 468.715 -0.75608 468.715 -0.75608L902.783 0.416828L902.14 214.626Z" fill="#E4E4E4" fill-opacity="0.500008"/>
<mask id="mask0_1_2" style="mask-type:luminance" maskUnits="userSpaceOnUse" x="-36" y="-25" width="234" height="235">
<path d="M197.533 -24.2246H-35.3535V209.955H197.533V-24.2246Z" fill="white"/>
</mask>
<g mask="url(#mask0_1_2)">
<path fill-rule="evenodd" clip-rule="evenodd" d="M18.6399 1.06856C16.3648 1.06856 14.5199 2.92376 14.5199 5.21139C14.5199 7.49907 16.3648 9.35427 18.6399 9.35427C20.9158 9.35427 22.7599 7.49907 22.7599 5.21139C22.7612 2.92376 20.9158 1.06856 18.6399 1.06856Z" fill="white" fill-opacity="0.501961"/>
<path fill-rule="evenodd" clip-rule="evenodd" d="M43.7934 1.06856C41.5183 1.06856 39.6734 2.92376 39.6734 5.21139C39.6734 7.49907 41.5183 9.35427 43.7934 9.35427C46.0694 9.35427 47.9134 7.49907 47.9134 5.21139C47.9147 2.92376 46.0694 1.06856 43.7934 1.06856Z" fill="white" fill-opacity="0.501961"/>
<path fill-rule="evenodd" clip-rule="evenodd" d="M68.5132 1.06856C66.2381 1.06856 64.3933 2.92376 64.3933 5.21139C64.3933 7.49907 66.2381 9.35427 68.5132 9.35427C70.7892 9.35427 72.6332 7.49907 72.6332 5.21139C72.6345 2.92376 70.7892 1.06856 68.5132 1.06856Z" fill="white" fill-opacity="0.501961"/>
<path fill-rule="evenodd" clip-rule="evenodd" d="M93.6668 1.06856C91.3908 1.06856 89.5468 2.92376 89.5468 5.21139C89.5468 7.49907 91.3917 9.35427 93.6668 9.35427C95.9418 9.35427 97.7867 7.49907 97.7867 5.21139C97.7867 2.92376 95.9418 1.06856 93.6668 1.06856Z" fill="white" fill-opacity="0.501961"/>
<path fill-rule="evenodd" clip-rule="evenodd" d="M118.603 1.06856C116.208 1.06856 114.267 2.92376 114.267 5.21139C114.267 7.49907 116.209 9.35427 118.603 9.35427C120.998 9.35427 122.94 7.49907 122.94 5.21139C122.94 2.92376 120.998 1.06856 118.603 1.06856Z" fill="white" fill-opacity="0.501961"/>
<path fill-rule="evenodd" clip-rule="evenodd" d="M143.54 1.06856C141.264 1.06856 139.42 2.92376 139.42 5.21139C139.42 7.49907 141.265 9.35427 143.54 9.35427C145.815 9.35427 147.66 7.49907 147.66 5.21139C147.66 2.92376 145.815 1.06856 143.54 1.06856Z" fill="white" fill-opacity="0.501961"/>
<path fill-rule="evenodd" clip-rule="evenodd" d="M168.477 1.06856C166.081 1.06856 164.14 2.92376 164.14 5.21139C164.14 7.49907 166.082 9.35427 168.477 9.35427C170.872 9.35427 172.814 7.49907 172.814 5.21139C172.814 2.92376 170.872 1.06856 168.477 1.06856Z" fill="white" fill-opacity="0.501961"/>
<path fill-rule="evenodd" clip-rule="evenodd" d="M18.6399 25.9254C16.3648 25.9254 14.5199 27.8783 14.5199 30.2865C14.5199 32.6945 16.3648 34.6474 18.6399 34.6474C20.9158 34.6474 22.7599 32.6945 22.7599 30.2865C22.7599 27.8783 20.9158 25.9254 18.6399 25.9254Z" fill="white" fill-opacity="0.501961"/>
<path fill-rule="evenodd" clip-rule="evenodd" d="M43.7934 25.9254C41.5183 25.9254 39.6734 27.8783 39.6734 30.2865C39.6734 32.6945 41.5183 34.6474 43.7934 34.6474C46.0694 34.6474 47.9134 32.6945 47.9134 30.2865C47.9134 27.8783 46.0694 25.9254 43.7934 25.9254Z" fill="white" fill-opacity="0.501961"/>
<path fill-rule="evenodd" clip-rule="evenodd" d="M72.6332 30.2865C72.6332 32.6949 70.7888 34.6474 68.5132 34.6474C66.2377 34.6474 64.3933 32.6949 64.3933 30.2865C64.3933 27.8779 66.2377 25.9254 68.5132 25.9254C70.7888 25.9254 72.6332 27.8779 72.6332 30.2865Z" fill="white" fill-opacity="0.501961"/>
<path fill-rule="evenodd" clip-rule="evenodd" d="M97.7867 30.2865C97.7867 32.6949 95.9423 34.6474 93.6668 34.6474C91.3912 34.6474 89.5468 32.6949 89.5468 30.2865C89.5468 27.8779 91.3912 25.9254 93.6668 25.9254C95.9423 25.9254 97.7867 27.8779 97.7867 30.2865Z" fill="white" fill-opacity="0.501961"/>
<path fill-rule="evenodd" clip-rule="evenodd" d="M118.603 25.9254C116.208 25.9254 114.267 27.8783 114.267 30.2865C114.267 32.6945 116.209 34.6474 118.603 34.6474C120.998 34.6474 122.94 32.6945 122.94 30.2865C122.94 27.8783 120.998 25.9254 118.603 25.9254Z" fill="white" fill-opacity="0.501961"/>
<path fill-rule="evenodd" clip-rule="evenodd" d="M143.54 25.9254C141.264 25.9254 139.42 27.8783 139.42 30.2865C139.42 32.6945 141.265 34.6474 143.54 34.6474C145.815 34.6474 147.66 32.6945 147.66 30.2865C147.66 27.8783 145.815 25.9254 143.54 25.9254Z" fill="white" fill-opacity="0.501961"/>
<path fill-rule="evenodd" clip-rule="evenodd" d="M168.477 25.9254C166.081 25.9254 164.14 27.8783 164.14 30.2865C164.14 32.6945 166.082 34.6474 168.477 34.6474C170.872 34.6474 172.814 32.6945 172.814 30.2865C172.814 27.8783 170.872 25.9254 168.477 25.9254Z" fill="white" fill-opacity="0.501961"/>
<path fill-rule="evenodd" clip-rule="evenodd" d="M193.413 34.6474C195.689 34.6474 197.533 32.6945 197.533 30.2865C197.533 27.8783 195.689 25.9254 193.413 25.9254C191.137 25.9254 189.293 27.8783 189.293 30.2865C189.293 32.6945 191.137 34.6474 193.413 34.6474Z" fill="white" fill-opacity="0.501961"/>
<path fill-rule="evenodd" clip-rule="evenodd" d="M18.6399 51.2186C16.3648 51.2186 14.5199 53.0737 14.5199 55.3614C14.5199 57.6492 16.3648 59.5043 18.6399 59.5043C20.9158 59.5043 22.7599 57.6492 22.7599 55.3614C22.7599 53.0737 20.9158 51.2186 18.6399 51.2186Z" fill="white" fill-opacity="0.501961"/>
<path fill-rule="evenodd" clip-rule="evenodd" d="M43.7934 51.2186C41.5183 51.2186 39.6734 53.0737 39.6734 55.3614C39.6734 57.6492 41.5183 59.5043 43.7934 59.5043C46.0694 59.5043 47.9134 57.6492 47.9134 55.3614C47.9134 53.0737 46.0694 51.2186 43.7934 51.2186Z" fill="white" fill-opacity="0.501961"/>
<path fill-rule="evenodd" clip-rule="evenodd" d="M68.5132 51.2186C66.2381 51.2186 64.3933 53.0737 64.3933 55.3614C64.3933 57.6492 66.2381 59.5043 68.5132 59.5043C70.7892 59.5043 72.6332 57.6492 72.6332 55.3614C72.6332 53.0737 70.7892 51.2186 68.5132 51.2186Z" fill="white" fill-opacity="0.501961"/>
<path fill-rule="evenodd" clip-rule="evenodd" d="M93.6668 51.2186C91.3908 51.2186 89.5468 53.0737 89.5468 55.3614C89.5468 57.6492 91.3917 59.5043 93.6668 59.5043C95.9418 59.5043 97.7867 57.6492 97.7867 55.3614C97.7867 53.0737 95.9418 51.2186 93.6668 51.2186Z" fill="white" fill-opacity="0.501961"/>
<path fill-rule="evenodd" clip-rule="evenodd" d="M118.603 51.2186C116.208 51.2186 114.267 53.0737 114.267 55.3614C114.267 57.6492 116.209 59.5043 118.603 59.5043C120.998 59.5043 122.94 57.6492 122.94 55.3614C122.94 53.0737 120.998 51.2186 118.603 51.2186Z" fill="white" fill-opacity="0.501961"/>
<path fill-rule="evenodd" clip-rule="evenodd" d="M143.54 51.2186C141.264 51.2186 139.42 53.0737 139.42 55.3614C139.42 57.6492 141.265 59.5043 143.54 59.5043C145.815 59.5043 147.66 57.6492 147.66 55.3614C147.66 53.0737 145.815 51.2186 143.54 51.2186Z" fill="white" fill-opacity="0.501961"/>
<path fill-rule="evenodd" clip-rule="evenodd" d="M168.477 51.2186C166.081 51.2186 164.14 53.0737 164.14 55.3614C164.14 57.6492 166.082 59.5043 168.477 59.5043C170.872 59.5043 172.814 57.6492 172.814 55.3614C172.814 53.0737 170.872 51.2186 168.477 51.2186Z" fill="white" fill-opacity="0.501961"/>
<path fill-rule="evenodd" clip-rule="evenodd" d="M193.413 59.5043C195.689 59.5043 197.533 57.6492 197.533 55.3614C197.533 53.0737 195.689 51.2186 193.413 51.2186C191.137 51.2186 189.293 53.0737 189.293 55.3614C189.293 57.6492 191.137 59.5043 193.413 59.5043Z" fill="white" fill-opacity="0.501961"/>
<path fill-rule="evenodd" clip-rule="evenodd" d="M18.6399 76.0756C16.3648 76.0756 14.5199 78.0284 14.5199 80.4365C14.5199 82.8446 16.3648 84.7974 18.6399 84.7974C20.9158 84.7974 22.7599 82.8446 22.7599 80.4365C22.7599 78.0284 20.9158 76.0756 18.6399 76.0756Z" fill="white" fill-opacity="0.501961"/>
<path fill-rule="evenodd" clip-rule="evenodd" d="M43.7934 76.0756C41.5183 76.0756 39.6734 78.0284 39.6734 80.4365C39.6734 82.8446 41.5183 84.7974 43.7934 84.7974C46.0694 84.7974 47.9134 82.8446 47.9134 80.4365C47.9134 78.0284 46.0694 76.0756 43.7934 76.0756Z" fill="white" fill-opacity="0.501961"/>
<path fill-rule="evenodd" clip-rule="evenodd" d="M72.6332 80.4365C72.6332 82.845 70.7888 84.7974 68.5132 84.7974C66.2377 84.7974 64.3933 82.845 64.3933 80.4365C64.3933 78.028 66.2377 76.0756 68.5132 76.0756C70.7888 76.0756 72.6332 78.028 72.6332 80.4365Z" fill="white" fill-opacity="0.501961"/>
<path fill-rule="evenodd" clip-rule="evenodd" d="M97.7867 80.4365C97.7867 82.845 95.9423 84.7974 93.6668 84.7974C91.3912 84.7974 89.5468 82.845 89.5468 80.4365C89.5468 78.028 91.3912 76.0756 93.6668 76.0756C95.9423 76.0756 97.7867 78.028 97.7867 80.4365Z" fill="white" fill-opacity="0.501961"/>
<path fill-rule="evenodd" clip-rule="evenodd" d="M118.603 76.0756C116.208 76.0756 114.267 78.0284 114.267 80.4365C114.267 82.8446 116.209 84.7974 118.603 84.7974C120.998 84.7974 122.94 82.8446 122.94 80.4365C122.94 78.0284 120.998 76.0756 118.603 76.0756Z" fill="white" fill-opacity="0.501961"/>
<path fill-rule="evenodd" clip-rule="evenodd" d="M143.54 76.0756C141.264 76.0756 139.42 78.0284 139.42 80.4365C139.42 82.8446 141.265 84.7974 143.54 84.7974C145.815 84.7974 147.66 82.8446 147.66 80.4365C147.66 78.0284 145.815 76.0756 143.54 76.0756Z" fill="white" fill-opacity="0.501961"/>
<path fill-rule="evenodd" clip-rule="evenodd" d="M168.477 76.0756C166.081 76.0756 164.14 78.0284 164.14 80.4365C164.14 82.8446 166.082 84.7974 168.477 84.7974C170.872 84.7974 172.814 82.8446 172.814 80.4365C172.814 78.0284 170.872 76.0756 168.477 76.0756Z" fill="white" fill-opacity="0.501961"/>
<path fill-rule="evenodd" clip-rule="evenodd" d="M193.413 84.7974C195.689 84.7974 197.533 82.8446 197.533 80.4365C197.533 78.0284 195.689 76.0756 193.413 76.0756C191.137 76.0756 189.293 78.0284 189.293 80.4365C189.293 82.8446 191.137 84.7974 193.413 84.7974Z" fill="white" fill-opacity="0.501961"/>
<path fill-rule="evenodd" clip-rule="evenodd" d="M18.6399 101.369C16.3648 101.369 14.5199 103.224 14.5199 105.512C14.5199 107.799 16.3648 109.654 18.6399 109.654C20.9158 109.654 22.7599 107.799 22.7599 105.512C22.7599 103.224 20.9158 101.369 18.6399 101.369Z" fill="white" fill-opacity="0.501961"/>
<path fill-rule="evenodd" clip-rule="evenodd" d="M43.7934 101.369C41.5183 101.369 39.6734 103.224 39.6734 105.512C39.6734 107.799 41.5183 109.654 43.7934 109.654C46.0694 109.654 47.9134 107.799 47.9134 105.512C47.9134 103.224 46.0694 101.369 43.7934 101.369Z" fill="white" fill-opacity="0.501961"/>
<path fill-rule="evenodd" clip-rule="evenodd" d="M68.5132 101.369C66.2381 101.369 64.3933 103.224 64.3933 105.512C64.3933 107.799 66.2381 109.654 68.5132 109.654C70.7892 109.654 72.6332 107.799 72.6332 105.512C72.6332 103.224 70.7892 101.369 68.5132 101.369Z" fill="white" fill-opacity="0.501961"/>
<path fill-rule="evenodd" clip-rule="evenodd" d="M93.6668 101.369C91.3908 101.369 89.5468 103.224 89.5468 105.512C89.5468 107.799 91.3917 109.654 93.6668 109.654C95.9418 109.654 97.7867 107.799 97.7867 105.512C97.7867 103.224 95.9418 101.369 93.6668 101.369Z" fill="white" fill-opacity="0.501961"/>
<path fill-rule="evenodd" clip-rule="evenodd" d="M118.603 101.369C116.208 101.369 114.267 103.224 114.267 105.512C114.267 107.799 116.209 109.654 118.603 109.654C120.998 109.654 122.94 107.799 122.94 105.512C122.94 103.224 120.998 101.369 118.603 101.369Z" fill="white" fill-opacity="0.501961"/>
<path fill-rule="evenodd" clip-rule="evenodd" d="M143.54 101.369C141.264 101.369 139.42 103.224 139.42 105.512C139.42 107.799 141.265 109.654 143.54 109.654C145.815 109.654 147.66 107.799 147.66 105.512C147.66 103.224 145.815 101.369 143.54 101.369Z" fill="white" fill-opacity="0.501961"/>
<path fill-rule="evenodd" clip-rule="evenodd" d="M168.477 101.369C166.081 101.369 164.14 103.224 164.14 105.512C164.14 107.799 166.082 109.654 168.477 109.654C170.872 109.654 172.814 107.799 172.814 105.512C172.814 103.224 170.872 101.369 168.477 101.369Z" fill="white" fill-opacity="0.501961"/>
<path fill-rule="evenodd" clip-rule="evenodd" d="M193.413 109.654C195.689 109.654 197.533 107.799 197.533 105.512C197.533 103.224 195.689 101.369 193.413 101.369C191.137 101.369 189.293 103.224 189.293 105.512C189.293 107.799 191.137 109.654 193.413 109.654Z" fill="white" fill-opacity="0.501961"/>
<path fill-rule="evenodd" clip-rule="evenodd" d="M18.6399 126.662C16.3648 126.662 14.5199 128.517 14.5199 130.805C14.5199 133.092 16.3648 134.947 18.6399 134.947C20.9158 134.947 22.7599 133.092 22.7599 130.805C22.7612 128.517 20.9158 126.662 18.6399 126.662Z" fill="white" fill-opacity="0.501961"/>
<path fill-rule="evenodd" clip-rule="evenodd" d="M43.7934 126.662C41.5183 126.662 39.6734 128.517 39.6734 130.805C39.6734 133.092 41.5183 134.947 43.7934 134.947C46.0694 134.947 47.9134 133.092 47.9134 130.805C47.9147 128.517 46.0694 126.662 43.7934 126.662Z" fill="white" fill-opacity="0.501961"/>
<path fill-rule="evenodd" clip-rule="evenodd" d="M68.5132 126.662C66.2381 126.662 64.3933 128.517 64.3933 130.805C64.3933 133.092 66.2381 134.947 68.5132 134.947C70.7892 134.947 72.6332 133.092 72.6332 130.805C72.6345 128.517 70.7892 126.662 68.5132 126.662Z" fill="white" fill-opacity="0.501961"/>
<path fill-rule="evenodd" clip-rule="evenodd" d="M93.6668 126.662C91.3908 126.662 89.5468 128.517 89.5468 130.805C89.5468 133.092 91.3917 134.947 93.6668 134.947C95.9418 134.947 97.7867 133.092 97.7867 130.805C97.7867 128.517 95.9418 126.662 93.6668 126.662Z" fill="white" fill-opacity="0.501961"/>
<path fill-rule="evenodd" clip-rule="evenodd" d="M118.603 126.662C116.208 126.662 114.267 128.517 114.267 130.805C114.267 133.092 116.209 134.947 118.603 134.947C120.998 134.947 122.94 133.092 122.94 130.805C122.94 128.517 120.998 126.662 118.603 126.662Z" fill="white" fill-opacity="0.501961"/>
<path fill-rule="evenodd" clip-rule="evenodd" d="M143.54 126.662C141.264 126.662 139.42 128.517 139.42 130.805C139.42 133.092 141.265 134.947 143.54 134.947C145.815 134.947 147.66 133.092 147.66 130.805C147.66 128.517 145.815 126.662 143.54 126.662Z" fill="white" fill-opacity="0.501961"/>
<path fill-rule="evenodd" clip-rule="evenodd" d="M168.477 126.662C166.081 126.662 164.14 128.517 164.14 130.805C164.14 133.092 166.082 134.947 168.477 134.947C170.872 134.947 172.814 133.092 172.814 130.805C172.814 128.517 170.872 126.662 168.477 126.662Z" fill="white" fill-opacity="0.501961"/>
<path fill-rule="evenodd" clip-rule="evenodd" d="M193.413 134.947C195.689 134.947 197.533 133.092 197.533 130.805C197.533 128.517 195.689 126.662 193.413 126.662C191.137 126.662 189.293 128.517 189.293 130.805C189.293 133.092 191.137 134.947 193.413 134.947Z" fill="white" fill-opacity="0.501961"/>
<path fill-rule="evenodd" clip-rule="evenodd" d="M18.6399 151.519C16.3648 151.519 14.5199 153.374 14.5199 155.662C14.5199 157.949 16.3648 159.805 18.6399 159.805C20.9158 159.805 22.7599 157.949 22.7599 155.662C22.7612 153.374 20.9158 151.519 18.6399 151.519Z" fill="white" fill-opacity="0.501961"/>
<path fill-rule="evenodd" clip-rule="evenodd" d="M43.7934 151.519C41.5183 151.519 39.6734 153.374 39.6734 155.662C39.6734 157.949 41.5183 159.805 43.7934 159.805C46.0694 159.805 47.9134 157.949 47.9134 155.662C47.9147 153.374 46.0694 151.519 43.7934 151.519Z" fill="white" fill-opacity="0.501961"/>
<path fill-rule="evenodd" clip-rule="evenodd" d="M72.6332 155.662C72.6332 157.95 70.7888 159.805 68.5132 159.805C66.2377 159.805 64.3933 157.95 64.3933 155.662C64.3933 153.374 66.2377 151.519 68.5132 151.519C70.7888 151.519 72.6332 153.374 72.6332 155.662Z" fill="white" fill-opacity="0.501961"/>
<path fill-rule="evenodd" clip-rule="evenodd" d="M97.7867 155.662C97.7867 157.95 95.9423 159.805 93.6668 159.805C91.3912 159.805 89.5468 157.95 89.5468 155.662C89.5468 153.374 91.3912 151.519 93.6668 151.519C95.9423 151.519 97.7867 153.374 97.7867 155.662Z" fill="white" fill-opacity="0.501961"/>
<path fill-rule="evenodd" clip-rule="evenodd" d="M118.603 151.519C116.208 151.519 114.267 153.374 114.267 155.662C114.267 157.949 116.209 159.805 118.603 159.805C120.998 159.805 122.94 157.949 122.94 155.662C122.94 153.374 120.998 151.519 118.603 151.519Z" fill="white" fill-opacity="0.501961"/>
<path fill-rule="evenodd" clip-rule="evenodd" d="M143.54 151.519C141.264 151.519 139.42 153.374 139.42 155.662C139.42 157.949 141.265 159.805 143.54 159.805C145.815 159.805 147.66 157.949 147.66 155.662C147.66 153.374 145.815 151.519 143.54 151.519Z" fill="white" fill-opacity="0.501961"/>
<path fill-rule="evenodd" clip-rule="evenodd" d="M168.477 151.519C166.081 151.519 164.14 153.374 164.14 155.662C164.14 157.949 166.082 159.805 168.477 159.805C170.872 159.805 172.814 157.949 172.814 155.662C172.814 153.374 170.872 151.519 168.477 151.519Z" fill="white" fill-opacity="0.501961"/>
<path fill-rule="evenodd" clip-rule="evenodd" d="M193.413 159.805C195.689 159.805 197.533 157.949 197.533 155.662C197.533 153.373 195.689 151.519 193.413 151.519C191.137 151.519 189.293 153.374 189.293 155.662C189.293 157.949 191.137 159.805 193.413 159.805Z" fill="white" fill-opacity="0.501961"/>
<path fill-rule="evenodd" clip-rule="evenodd" d="M18.6399 176.812C16.3648 176.812 14.5199 178.667 14.5199 180.955C14.5199 183.242 16.3648 185.098 18.6399 185.098C20.9158 185.098 22.7599 183.242 22.7599 180.955C22.7599 178.667 20.9158 176.812 18.6399 176.812Z" fill="white" fill-opacity="0.501961"/>
<path fill-rule="evenodd" clip-rule="evenodd" d="M43.7934 176.812C41.5183 176.812 39.6734 178.667 39.6734 180.955C39.6734 183.242 41.5183 185.098 43.7934 185.098C46.0694 185.098 47.9134 183.242 47.9134 180.955C47.9134 178.667 46.0694 176.812 43.7934 176.812Z" fill="white" fill-opacity="0.501961"/>
<path fill-rule="evenodd" clip-rule="evenodd" d="M68.5132 176.812C66.2381 176.812 64.3933 178.667 64.3933 180.955C64.3933 183.242 66.2381 185.098 68.5132 185.098C70.7892 185.098 72.6332 183.242 72.6332 180.955C72.6332 178.667 70.7892 176.812 68.5132 176.812Z" fill="white" fill-opacity="0.501961"/>
<path fill-rule="evenodd" clip-rule="evenodd" d="M93.6668 176.812C91.3908 176.812 89.5468 178.667 89.5468 180.955C89.5468 183.242 91.3917 185.098 93.6668 185.098C95.9418 185.098 97.7867 183.242 97.7867 180.955C97.7867 178.667 95.9418 176.812 93.6668 176.812Z" fill="white" fill-opacity="0.501961"/>
<path fill-rule="evenodd" clip-rule="evenodd" d="M118.603 176.812C116.208 176.812 114.267 178.667 114.267 180.955C114.267 183.242 116.209 185.098 118.603 185.098C120.998 185.098 122.94 183.242 122.94 180.955C122.94 178.667 120.998 176.812 118.603 176.812Z" fill="white" fill-opacity="0.501961"/>
<path fill-rule="evenodd" clip-rule="evenodd" d="M143.54 176.812C141.264 176.812 139.42 178.667 139.42 180.955C139.42 183.242 141.265 185.098 143.54 185.098C145.815 185.098 147.66 183.242 147.66 180.955C147.66 178.667 145.815 176.812 143.54 176.812Z" fill="white" fill-opacity="0.501961"/>
<path fill-rule="evenodd" clip-rule="evenodd" d="M168.477 176.812C166.081 176.812 164.14 178.667 164.14 180.955C164.14 183.242 166.082 185.098 168.477 185.098C170.872 185.098 172.814 183.242 172.814 180.955C172.814 178.667 170.872 176.812 168.477 176.812Z" fill="white" fill-opacity="0.501961"/>
<path fill-rule="evenodd" clip-rule="evenodd" d="M18.6399 201.669C16.3648 201.669 14.5199 203.524 14.5199 205.812C14.5199 208.1 16.3648 209.955 18.6399 209.955C20.9158 209.955 22.7599 208.1 22.7599 205.812C22.7599 203.524 20.9158 201.669 18.6399 201.669Z" fill="white" fill-opacity="0.501961"/>
<path fill-rule="evenodd" clip-rule="evenodd" d="M43.7934 201.669C41.5183 201.669 39.6734 203.524 39.6734 205.812C39.6734 208.1 41.5183 209.955 43.7934 209.955C46.0694 209.955 47.9134 208.1 47.9134 205.812C47.9134 203.524 46.0694 201.669 43.7934 201.669Z" fill="white" fill-opacity="0.501961"/>
<path fill-rule="evenodd" clip-rule="evenodd" d="M72.6332 205.812C72.6332 208.1 70.7888 209.955 68.5132 209.955C66.2377 209.955 64.3933 208.1 64.3933 205.812C64.3933 203.524 66.2377 201.669 68.5132 201.669C70.7888 201.669 72.6332 203.524 72.6332 205.812Z" fill="white" fill-opacity="0.501961"/>
<path fill-rule="evenodd" clip-rule="evenodd" d="M97.7867 205.812C97.7867 208.1 95.9423 209.955 93.6668 209.955C91.3912 209.955 89.5468 208.1 89.5468 205.812C89.5468 203.524 91.3912 201.669 93.6668 201.669C95.9423 201.669 97.7867 203.524 97.7867 205.812Z" fill="white" fill-opacity="0.501961"/>
<path fill-rule="evenodd" clip-rule="evenodd" d="M118.603 201.669C116.208 201.669 114.267 203.524 114.267 205.812C114.267 208.1 116.209 209.955 118.603 209.955C120.998 209.955 122.94 208.1 122.94 205.812C122.94 203.524 120.998 201.669 118.603 201.669Z" fill="white" fill-opacity="0.501961"/>
<path fill-rule="evenodd" clip-rule="evenodd" d="M143.54 201.669C141.264 201.669 139.42 203.524 139.42 205.812C139.42 208.1 141.265 209.955 143.54 209.955C145.815 209.955 147.66 208.1 147.66 205.812C147.66 203.524 145.815 201.669 143.54 201.669Z" fill="white" fill-opacity="0.501961"/>
</g>
<mask id="mask1_1_2" style="mask-type:luminance" maskUnits="userSpaceOnUse" x="574" y="379" width="191" height="192">
<path d="M764.737 379.375H574.75V570.416H764.737V379.375Z" fill="white"/>
</mask>
<g mask="url(#mask1_1_2)">
<path fill-rule="evenodd" clip-rule="evenodd" d="M618.797 379.375C616.941 379.375 615.436 380.888 615.436 382.754C615.436 384.621 616.941 386.134 618.797 386.134C620.654 386.134 622.158 384.621 622.158 382.754C622.159 380.888 620.654 379.375 618.797 379.375Z" fill="white" fill-opacity="0.501961"/>
<path fill-rule="evenodd" clip-rule="evenodd" d="M639.317 379.375C637.461 379.375 635.956 380.888 635.956 382.754C635.956 384.621 637.461 386.134 639.317 386.134C641.174 386.134 642.678 384.621 642.678 382.754C642.679 380.888 641.174 379.375 639.317 379.375Z" fill="white" fill-opacity="0.501961"/>
<path fill-rule="evenodd" clip-rule="evenodd" d="M659.483 379.375C657.627 379.375 656.122 380.888 656.122 382.754C656.122 384.621 657.627 386.134 659.483 386.134C661.34 386.134 662.844 384.621 662.844 382.754C662.845 380.888 661.34 379.375 659.483 379.375Z" fill="white" fill-opacity="0.501961"/>
<path fill-rule="evenodd" clip-rule="evenodd" d="M680.003 379.375C678.147 379.375 676.642 380.888 676.642 382.754C676.642 384.621 678.147 386.134 680.003 386.134C681.859 386.134 683.364 384.621 683.364 382.754C683.364 380.888 681.859 379.375 680.003 379.375Z" fill="white" fill-opacity="0.501961"/>
<path fill-rule="evenodd" clip-rule="evenodd" d="M700.346 379.375C698.392 379.375 696.809 380.888 696.809 382.754C696.809 384.621 698.393 386.134 700.346 386.134C702.3 386.134 703.884 384.621 703.884 382.754C703.884 380.888 702.3 379.375 700.346 379.375Z" fill="white" fill-opacity="0.501961"/>
<path fill-rule="evenodd" clip-rule="evenodd" d="M720.689 379.375C718.833 379.375 717.328 380.888 717.328 382.754C717.328 384.621 718.833 386.134 720.689 386.134C722.545 386.134 724.05 384.621 724.05 382.754C724.05 380.888 722.545 379.375 720.689 379.375Z" fill="white" fill-opacity="0.501961"/>
<path fill-rule="evenodd" clip-rule="evenodd" d="M598.631 400.008C596.775 400.008 595.27 401.522 595.27 403.388C595.27 405.254 596.775 406.768 598.631 406.768C600.488 406.768 601.992 405.254 601.992 403.388C601.992 401.522 600.488 400.008 598.631 400.008Z" fill="white" fill-opacity="0.501961"/>
<path fill-rule="evenodd" clip-rule="evenodd" d="M618.797 400.008C616.941 400.008 615.436 401.522 615.436 403.388C615.436 405.254 616.941 406.768 618.797 406.768C620.654 406.768 622.158 405.254 622.158 403.388C622.159 401.522 620.654 400.008 618.797 400.008Z" fill="white" fill-opacity="0.501961"/>
<path fill-rule="evenodd" clip-rule="evenodd" d="M639.317 400.008C637.461 400.008 635.956 401.522 635.956 403.388C635.956 405.254 637.461 406.768 639.317 406.768C641.174 406.768 642.678 405.254 642.678 403.388C642.679 401.522 641.174 400.008 639.317 400.008Z" fill="white" fill-opacity="0.501961"/>
<path fill-rule="evenodd" clip-rule="evenodd" d="M659.483 400.008C657.627 400.008 656.122 401.522 656.122 403.388C656.122 405.254 657.627 406.768 659.483 406.768C661.34 406.768 662.844 405.254 662.844 403.388C662.845 401.522 661.34 400.008 659.483 400.008Z" fill="white" fill-opacity="0.501961"/>
<path fill-rule="evenodd" clip-rule="evenodd" d="M680.003 400.008C678.147 400.008 676.642 401.522 676.642 403.388C676.642 405.254 678.147 406.768 680.003 406.768C681.859 406.768 683.364 405.254 683.364 403.388C683.364 401.522 681.859 400.008 680.003 400.008Z" fill="white" fill-opacity="0.501961"/>
<path fill-rule="evenodd" clip-rule="evenodd" d="M700.346 400.008C698.392 400.008 696.809 401.522 696.809 403.388C696.809 405.254 698.393 406.768 700.346 406.768C702.3 406.768 703.884 405.254 703.884 403.388C703.884 401.522 702.3 400.008 700.346 400.008Z" fill="white" fill-opacity="0.501961"/>
<path fill-rule="evenodd" clip-rule="evenodd" d="M720.689 400.008C718.833 400.008 717.328 401.522 717.328 403.388C717.328 405.254 718.833 406.768 720.689 406.768C722.545 406.768 724.05 405.254 724.05 403.388C724.05 401.522 722.545 400.008 720.689 400.008Z" fill="white" fill-opacity="0.501961"/>
<path fill-rule="evenodd" clip-rule="evenodd" d="M741.033 400.008C739.078 400.008 737.495 401.522 737.495 403.388C737.495 405.254 739.079 406.768 741.033 406.768C742.986 406.768 744.57 405.254 744.57 403.388C744.57 401.522 742.986 400.008 741.033 400.008Z" fill="white" fill-opacity="0.501961"/>
<path fill-rule="evenodd" clip-rule="evenodd" d="M578.111 420.286C576.255 420.286 574.75 421.88 574.75 423.844C574.75 425.809 576.255 427.402 578.111 427.402C579.968 427.402 581.472 425.809 581.472 423.844C581.472 421.88 579.968 420.286 578.111 420.286Z" fill="white" fill-opacity="0.501961"/>
<path fill-rule="evenodd" clip-rule="evenodd" d="M598.631 420.286C596.775 420.286 595.27 421.88 595.27 423.844C595.27 425.809 596.775 427.402 598.631 427.402C600.488 427.402 601.992 425.809 601.992 423.844C601.992 421.88 600.488 420.286 598.631 420.286Z" fill="white" fill-opacity="0.501961"/>
<path fill-rule="evenodd" clip-rule="evenodd" d="M618.797 420.286C616.941 420.286 615.436 421.88 615.436 423.844C615.436 425.809 616.941 427.402 618.797 427.402C620.654 427.402 622.158 425.809 622.158 423.844C622.158 421.88 620.654 420.286 618.797 420.286Z" fill="white" fill-opacity="0.501961"/>
<path fill-rule="evenodd" clip-rule="evenodd" d="M639.317 420.286C637.461 420.286 635.956 421.88 635.956 423.844C635.956 425.809 637.461 427.402 639.317 427.402C641.174 427.402 642.678 425.809 642.678 423.844C642.678 421.88 641.174 420.286 639.317 420.286Z" fill="white" fill-opacity="0.501961"/>
<path fill-rule="evenodd" clip-rule="evenodd" d="M662.844 423.844C662.844 425.809 661.34 427.402 659.483 427.402C657.627 427.402 656.122 425.809 656.122 423.844C656.122 421.879 657.627 420.286 659.483 420.286C661.34 420.286 662.844 421.879 662.844 423.844Z" fill="white" fill-opacity="0.501961"/>
<path fill-rule="evenodd" clip-rule="evenodd" d="M683.364 423.844C683.364 425.809 681.86 427.402 680.003 427.402C678.147 427.402 676.642 425.809 676.642 423.844C676.642 421.879 678.147 420.286 680.003 420.286C681.86 420.286 683.364 421.879 683.364 423.844Z" fill="white" fill-opacity="0.501961"/>
<path fill-rule="evenodd" clip-rule="evenodd" d="M700.346 420.286C698.392 420.286 696.809 421.88 696.809 423.844C696.809 425.809 698.393 427.402 700.346 427.402C702.3 427.402 703.884 425.809 703.884 423.844C703.884 421.88 702.3 420.286 700.346 420.286Z" fill="white" fill-opacity="0.501961"/>
<path fill-rule="evenodd" clip-rule="evenodd" d="M720.689 420.286C718.833 420.286 717.328 421.88 717.328 423.844C717.328 425.809 718.833 427.402 720.689 427.402C722.545 427.402 724.05 425.809 724.05 423.844C724.05 421.88 722.545 420.286 720.689 420.286Z" fill="white" fill-opacity="0.501961"/>
<path fill-rule="evenodd" clip-rule="evenodd" d="M741.033 420.286C739.078 420.286 737.495 421.88 737.495 423.844C737.495 425.809 739.079 427.402 741.033 427.402C742.986 427.402 744.57 425.809 744.57 423.844C744.57 421.88 742.986 420.286 741.033 420.286Z" fill="white" fill-opacity="0.501961"/>
<path fill-rule="evenodd" clip-rule="evenodd" d="M761.376 427.402C763.232 427.402 764.737 425.809 764.737 423.844C764.737 421.88 763.232 420.286 761.376 420.286C759.519 420.286 758.015 421.88 758.015 423.844C758.015 425.809 759.519 427.402 761.376 427.402Z" fill="white" fill-opacity="0.501961"/>
<path fill-rule="evenodd" clip-rule="evenodd" d="M578.111 440.92C576.255 440.92 574.75 442.434 574.75 444.3C574.75 446.166 576.255 447.68 578.111 447.68C579.968 447.68 581.472 446.166 581.472 444.3C581.472 442.434 579.968 440.92 578.111 440.92Z" fill="white" fill-opacity="0.501961"/>
<path fill-rule="evenodd" clip-rule="evenodd" d="M598.631 440.92C596.775 440.92 595.27 442.434 595.27 444.3C595.27 446.166 596.775 447.68 598.631 447.68C600.488 447.68 601.992 446.166 601.992 444.3C601.992 442.434 600.488 440.92 598.631 440.92Z" fill="white" fill-opacity="0.501961"/>
<path fill-rule="evenodd" clip-rule="evenodd" d="M618.797 440.92C616.941 440.92 615.436 442.434 615.436 444.3C615.436 446.166 616.941 447.68 618.797 447.68C620.654 447.68 622.158 446.166 622.158 444.3C622.158 442.434 620.654 440.92 618.797 440.92Z" fill="white" fill-opacity="0.501961"/>
<path fill-rule="evenodd" clip-rule="evenodd" d="M639.317 440.92C637.461 440.92 635.956 442.434 635.956 444.3C635.956 446.166 637.461 447.68 639.317 447.68C641.174 447.68 642.678 446.166 642.678 444.3C642.678 442.434 641.174 440.92 639.317 440.92Z" fill="white" fill-opacity="0.501961"/>
<path fill-rule="evenodd" clip-rule="evenodd" d="M659.483 440.92C657.627 440.92 656.122 442.434 656.122 444.3C656.122 446.166 657.627 447.68 659.483 447.68C661.34 447.68 662.844 446.166 662.844 444.3C662.844 442.434 661.34 440.92 659.483 440.92Z" fill="white" fill-opacity="0.501961"/>
<path fill-rule="evenodd" clip-rule="evenodd" d="M680.003 440.92C678.147 440.92 676.642 442.434 676.642 444.3C676.642 446.166 678.147 447.68 680.003 447.68C681.859 447.68 683.364 446.166 683.364 444.3C683.364 442.434 681.859 440.92 680.003 440.92Z" fill="white" fill-opacity="0.501961"/>
<path fill-rule="evenodd" clip-rule="evenodd" d="M700.346 440.92C698.392 440.92 696.809 442.434 696.809 444.3C696.809 446.166 698.393 447.68 700.346 447.68C702.3 447.68 703.884 446.166 703.884 444.3C703.884 442.434 702.3 440.92 700.346 440.92Z" fill="white" fill-opacity="0.501961"/>
<path fill-rule="evenodd" clip-rule="evenodd" d="M720.689 440.92C718.833 440.92 717.328 442.434 717.328 444.3C717.328 446.166 718.833 447.68 720.689 447.68C722.545 447.68 724.05 446.166 724.05 444.3C724.05 442.434 722.545 440.92 720.689 440.92Z" fill="white" fill-opacity="0.501961"/>
<path fill-rule="evenodd" clip-rule="evenodd" d="M741.033 440.92C739.078 440.92 737.495 442.434 737.495 444.3C737.495 446.166 739.079 447.68 741.033 447.68C742.986 447.68 744.57 446.166 744.57 444.3C744.57 442.434 742.986 440.92 741.033 440.92Z" fill="white" fill-opacity="0.501961"/>
<path fill-rule="evenodd" clip-rule="evenodd" d="M761.376 447.68C763.232 447.68 764.737 446.166 764.737 444.3C764.737 442.434 763.232 440.92 761.376 440.92C759.519 440.92 758.015 442.434 758.015 444.3C758.015 446.166 759.519 447.68 761.376 447.68Z" fill="white" fill-opacity="0.501961"/>
<path fill-rule="evenodd" clip-rule="evenodd" d="M578.111 461.198C576.255 461.198 574.75 462.792 574.75 464.756C574.75 466.72 576.255 468.314 578.111 468.314C579.968 468.314 581.472 466.72 581.472 464.756C581.472 462.792 579.968 461.198 578.111 461.198Z" fill="white" fill-opacity="0.501961"/>
<path fill-rule="evenodd" clip-rule="evenodd" d="M598.631 461.198C596.775 461.198 595.27 462.792 595.27 464.756C595.27 466.72 596.775 468.314 598.631 468.314C600.488 468.314 601.992 466.72 601.992 464.756C601.992 462.792 600.488 461.198 598.631 461.198Z" fill="white" fill-opacity="0.501961"/>
<path fill-rule="evenodd" clip-rule="evenodd" d="M618.797 461.198C616.941 461.198 615.436 462.792 615.436 464.756C615.436 466.72 616.941 468.314 618.797 468.314C620.654 468.314 622.158 466.72 622.158 464.756C622.158 462.792 620.654 461.198 618.797 461.198Z" fill="white" fill-opacity="0.501961"/>
<path fill-rule="evenodd" clip-rule="evenodd" d="M639.317 461.198C637.461 461.198 635.956 462.792 635.956 464.756C635.956 466.72 637.461 468.314 639.317 468.314C641.174 468.314 642.678 466.72 642.678 464.756C642.678 462.792 641.174 461.198 639.317 461.198Z" fill="white" fill-opacity="0.501961"/>
<path fill-rule="evenodd" clip-rule="evenodd" d="M662.844 464.756C662.844 466.721 661.34 468.314 659.483 468.314C657.627 468.314 656.122 466.721 656.122 464.756C656.122 462.791 657.627 461.198 659.483 461.198C661.34 461.198 662.844 462.791 662.844 464.756Z" fill="white" fill-opacity="0.501961"/>
<path fill-rule="evenodd" clip-rule="evenodd" d="M683.364 464.756C683.364 466.721 681.86 468.314 680.003 468.314C678.147 468.314 676.642 466.721 676.642 464.756C676.642 462.791 678.147 461.198 680.003 461.198C681.86 461.198 683.364 462.791 683.364 464.756Z" fill="white" fill-opacity="0.501961"/>
<path fill-rule="evenodd" clip-rule="evenodd" d="M700.346 461.198C698.392 461.198 696.809 462.792 696.809 464.756C696.809 466.72 698.393 468.314 700.346 468.314C702.3 468.314 703.884 466.72 703.884 464.756C703.884 462.792 702.3 461.198 700.346 461.198Z" fill="white" fill-opacity="0.501961"/>
<path fill-rule="evenodd" clip-rule="evenodd" d="M720.689 461.198C718.833 461.198 717.328 462.792 717.328 464.756C717.328 466.72 718.833 468.314 720.689 468.314C722.545 468.314 724.05 466.72 724.05 464.756C724.05 462.792 722.545 461.198 720.689 461.198Z" fill="white" fill-opacity="0.501961"/>
<path fill-rule="evenodd" clip-rule="evenodd" d="M741.033 461.198C739.078 461.198 737.495 462.792 737.495 464.756C737.495 466.72 739.079 468.314 741.033 468.314C742.986 468.314 744.57 466.72 744.57 464.756C744.57 462.792 742.986 461.198 741.033 461.198Z" fill="white" fill-opacity="0.501961"/>
<path fill-rule="evenodd" clip-rule="evenodd" d="M761.376 468.314C763.232 468.314 764.737 466.72 764.737 464.756C764.737 462.792 763.232 461.198 761.376 461.198C759.519 461.198 758.015 462.792 758.015 464.756C758.015 466.72 759.519 468.314 761.376 468.314Z" fill="white" fill-opacity="0.501961"/>
<path fill-rule="evenodd" clip-rule="evenodd" d="M578.111 481.832C576.255 481.832 574.75 483.346 574.75 485.212C574.75 487.078 576.255 488.592 578.111 488.592C579.968 488.592 581.472 487.078 581.472 485.212C581.472 483.346 579.968 481.832 578.111 481.832Z" fill="white" fill-opacity="0.501961"/>
<path fill-rule="evenodd" clip-rule="evenodd" d="M598.631 481.832C596.775 481.832 595.27 483.346 595.27 485.212C595.27 487.078 596.775 488.592 598.631 488.592C600.488 488.592 601.992 487.078 601.992 485.212C601.992 483.346 600.488 481.832 598.631 481.832Z" fill="white" fill-opacity="0.501961"/>
<path fill-rule="evenodd" clip-rule="evenodd" d="M618.797 481.832C616.941 481.832 615.436 483.346 615.436 485.212C615.436 487.078 616.941 488.592 618.797 488.592C620.654 488.592 622.158 487.078 622.158 485.212C622.158 483.346 620.654 481.832 618.797 481.832Z" fill="white" fill-opacity="0.501961"/>
<path fill-rule="evenodd" clip-rule="evenodd" d="M639.317 481.832C637.461 481.832 635.956 483.346 635.956 485.212C635.956 487.078 637.461 488.592 639.317 488.592C641.174 488.592 642.678 487.078 642.678 485.212C642.678 483.346 641.174 481.832 639.317 481.832Z" fill="white" fill-opacity="0.501961"/>
<path fill-rule="evenodd" clip-rule="evenodd" d="M659.483 481.832C657.627 481.832 656.122 483.346 656.122 485.212C656.122 487.078 657.627 488.592 659.483 488.592C661.34 488.592 662.844 487.078 662.844 485.212C662.844 483.346 661.34 481.832 659.483 481.832Z" fill="white" fill-opacity="0.501961"/>
<path fill-rule="evenodd" clip-rule="evenodd" d="M680.003 481.832C678.147 481.832 676.642 483.346 676.642 485.212C676.642 487.078 678.147 488.592 680.003 488.592C681.859 488.592 683.364 487.078 683.364 485.212C683.364 483.346 681.859 481.832 680.003 481.832Z" fill="white" fill-opacity="0.501961"/>
<path fill-rule="evenodd" clip-rule="evenodd" d="M700.346 481.832C698.392 481.832 696.809 483.346 696.809 485.212C696.809 487.078 698.393 488.592 700.346 488.592C702.3 488.592 703.884 487.078 703.884 485.212C703.884 483.346 702.3 481.832 700.346 481.832Z" fill="white" fill-opacity="0.501961"/>
<path fill-rule="evenodd" clip-rule="evenodd" d="M720.689 481.832C718.833 481.832 717.328 483.346 717.328 485.212C717.328 487.078 718.833 488.592 720.689 488.592C722.545 488.592 724.05 487.078 724.05 485.212C724.05 483.346 722.545 481.832 720.689 481.832Z" fill="white" fill-opacity="0.501961"/>
<path fill-rule="evenodd" clip-rule="evenodd" d="M741.033 481.832C739.078 481.832 737.495 483.346 737.495 485.212C737.495 487.078 739.079 488.592 741.033 488.592C742.986 488.592 744.57 487.078 744.57 485.212C744.57 483.346 742.986 481.832 741.033 481.832Z" fill="white" fill-opacity="0.501961"/>
<path fill-rule="evenodd" clip-rule="evenodd" d="M761.376 488.592C763.232 488.592 764.737 487.078 764.737 485.212C764.737 483.346 763.232 481.832 761.376 481.832C759.519 481.832 758.015 483.346 758.015 485.212C758.015 487.078 759.519 488.592 761.376 488.592Z" fill="white" fill-opacity="0.501961"/>
<path fill-rule="evenodd" clip-rule="evenodd" d="M578.111 502.466C576.255 502.466 574.75 503.98 574.75 505.846C574.75 507.712 576.255 509.225 578.111 509.225C579.968 509.225 581.472 507.712 581.472 505.846C581.472 503.98 579.968 502.466 578.111 502.466Z" fill="white" fill-opacity="0.501961"/>
<path fill-rule="evenodd" clip-rule="evenodd" d="M598.631 502.466C596.775 502.466 595.27 503.98 595.27 505.846C595.27 507.712 596.775 509.225 598.631 509.225C600.488 509.225 601.992 507.712 601.992 505.846C601.992 503.98 600.488 502.466 598.631 502.466Z" fill="white" fill-opacity="0.501961"/>
<path fill-rule="evenodd" clip-rule="evenodd" d="M618.797 502.466C616.941 502.466 615.436 503.98 615.436 505.846C615.436 507.712 616.941 509.225 618.797 509.225C620.654 509.225 622.158 507.712 622.158 505.846C622.159 503.98 620.654 502.466 618.797 502.466Z" fill="white" fill-opacity="0.501961"/>
<path fill-rule="evenodd" clip-rule="evenodd" d="M639.317 502.466C637.461 502.466 635.956 503.98 635.956 505.846C635.956 507.712 637.461 509.225 639.317 509.225C641.174 509.225 642.678 507.712 642.678 505.846C642.679 503.98 641.174 502.466 639.317 502.466Z" fill="white" fill-opacity="0.501961"/>
<path fill-rule="evenodd" clip-rule="evenodd" d="M659.483 502.466C657.627 502.466 656.122 503.98 656.122 505.846C656.122 507.712 657.627 509.225 659.483 509.225C661.34 509.225 662.844 507.712 662.844 505.846C662.845 503.98 661.34 502.466 659.483 502.466Z" fill="white" fill-opacity="0.501961"/>
<path fill-rule="evenodd" clip-rule="evenodd" d="M680.003 502.466C678.147 502.466 676.642 503.98 676.642 505.846C676.642 507.712 678.147 509.225 680.003 509.225C681.859 509.225 683.364 507.712 683.364 505.846C683.364 503.98 681.859 502.466 680.003 502.466Z" fill="white" fill-opacity="0.501961"/>
<path fill-rule="evenodd" clip-rule="evenodd" d="M700.346 502.466C698.392 502.466 696.809 503.98 696.809 505.846C696.809 507.712 698.393 509.225 700.346 509.225C702.3 509.225 703.884 507.712 703.884 505.846C703.884 503.98 702.3 502.466 700.346 502.466Z" fill="white" fill-opacity="0.501961"/>
<path fill-rule="evenodd" clip-rule="evenodd" d="M720.689 502.466C718.833 502.466 717.328 503.98 717.328 505.846C717.328 507.712 718.833 509.225 720.689 509.225C722.545 509.225 724.05 507.712 724.05 505.846C724.05 503.98 722.545 502.466 720.689 502.466Z" fill="white" fill-opacity="0.501961"/>
<path fill-rule="evenodd" clip-rule="evenodd" d="M741.033 502.466C739.078 502.466 737.495 503.98 737.495 505.846C737.495 507.712 739.079 509.225 741.033 509.225C742.986 509.225 744.57 507.712 744.57 505.846C744.57 503.98 742.986 502.466 741.033 502.466Z" fill="white" fill-opacity="0.501961"/>
<path fill-rule="evenodd" clip-rule="evenodd" d="M761.376 509.225C763.232 509.225 764.737 507.712 764.737 505.846C764.737 503.98 763.232 502.466 761.376 502.466C759.519 502.466 758.015 503.98 758.015 505.846C758.015 507.712 759.519 509.225 761.376 509.225Z" fill="white" fill-opacity="0.501961"/>
<path fill-rule="evenodd" clip-rule="evenodd" d="M578.111 522.744C576.255 522.744 574.75 524.258 574.75 526.124C574.75 527.99 576.255 529.504 578.111 529.504C579.968 529.504 581.472 527.99 581.472 526.124C581.472 524.258 579.968 522.744 578.111 522.744Z" fill="white" fill-opacity="0.501961"/>
<path fill-rule="evenodd" clip-rule="evenodd" d="M598.631 522.744C596.775 522.744 595.27 524.258 595.27 526.124C595.27 527.99 596.775 529.504 598.631 529.504C600.488 529.504 601.992 527.99 601.992 526.124C601.992 524.258 600.488 522.744 598.631 522.744Z" fill="white" fill-opacity="0.501961"/>
<path fill-rule="evenodd" clip-rule="evenodd" d="M618.797 522.744C616.941 522.744 615.436 524.258 615.436 526.124C615.436 527.99 616.941 529.504 618.797 529.504C620.654 529.504 622.158 527.99 622.158 526.124C622.159 524.258 620.654 522.744 618.797 522.744Z" fill="white" fill-opacity="0.501961"/>
<path fill-rule="evenodd" clip-rule="evenodd" d="M639.317 522.744C637.461 522.744 635.956 524.258 635.956 526.124C635.956 527.99 637.461 529.504 639.317 529.504C641.174 529.504 642.678 527.99 642.678 526.124C642.679 524.258 641.174 522.744 639.317 522.744Z" fill="white" fill-opacity="0.501961"/>
<path fill-rule="evenodd" clip-rule="evenodd" d="M662.844 526.124C662.844 527.991 661.34 529.504 659.483 529.504C657.627 529.504 656.122 527.991 656.122 526.124C656.122 524.257 657.627 522.744 659.483 522.744C661.34 522.744 662.844 524.257 662.844 526.124Z" fill="white" fill-opacity="0.501961"/>
<path fill-rule="evenodd" clip-rule="evenodd" d="M683.364 526.124C683.364 527.991 681.86 529.504 680.003 529.504C678.147 529.504 676.642 527.991 676.642 526.124C676.642 524.257 678.147 522.744 680.003 522.744C681.86 522.744 683.364 524.257 683.364 526.124Z" fill="white" fill-opacity="0.501961"/>
<path fill-rule="evenodd" clip-rule="evenodd" d="M700.346 522.744C698.392 522.744 696.809 524.258 696.809 526.124C696.809 527.99 698.393 529.504 700.346 529.504C702.3 529.504 703.884 527.99 703.884 526.124C703.884 524.258 702.3 522.744 700.346 522.744Z" fill="white" fill-opacity="0.501961"/>
<path fill-rule="evenodd" clip-rule="evenodd" d="M720.689 522.744C718.833 522.744 717.328 524.258 717.328 526.124C717.328 527.99 718.833 529.504 720.689 529.504C722.545 529.504 724.05 527.99 724.05 526.124C724.05 524.258 722.545 522.744 720.689 522.744Z" fill="white" fill-opacity="0.501961"/>
<path fill-rule="evenodd" clip-rule="evenodd" d="M741.033 522.744C739.078 522.744 737.495 524.258 737.495 526.124C737.495 527.99 739.079 529.504 741.033 529.504C742.986 529.504 744.57 527.99 744.57 526.124C744.57 524.258 742.986 522.744 741.033 522.744Z" fill="white" fill-opacity="0.501961"/>
<path fill-rule="evenodd" clip-rule="evenodd" d="M761.376 529.504C763.232 529.504 764.737 527.99 764.737 526.124C764.737 524.257 763.232 522.744 761.376 522.744C759.519 522.744 758.015 524.258 758.015 526.124C758.015 527.99 759.519 529.504 761.376 529.504Z" fill="white" fill-opacity="0.501961"/>
<path fill-rule="evenodd" clip-rule="evenodd" d="M598.631 543.378C596.775 543.378 595.27 544.891 595.27 546.758C595.27 548.624 596.775 550.137 598.631 550.137C600.488 550.137 601.992 548.624 601.992 546.758C601.992 544.891 600.488 543.378 598.631 543.378Z" fill="white" fill-opacity="0.501961"/>
<path fill-rule="evenodd" clip-rule="evenodd" d="M618.797 543.378C616.941 543.378 615.436 544.891 615.436 546.758C615.436 548.624 616.941 550.137 618.797 550.137C620.654 550.137 622.158 548.624 622.158 546.758C622.158 544.891 620.654 543.378 618.797 543.378Z" fill="white" fill-opacity="0.501961"/>
<path fill-rule="evenodd" clip-rule="evenodd" d="M639.317 543.378C637.461 543.378 635.956 544.891 635.956 546.758C635.956 548.624 637.461 550.137 639.317 550.137C641.174 550.137 642.678 548.624 642.678 546.758C642.678 544.891 641.174 543.378 639.317 543.378Z" fill="white" fill-opacity="0.501961"/>
<path fill-rule="evenodd" clip-rule="evenodd" d="M659.483 543.378C657.627 543.378 656.122 544.891 656.122 546.758C656.122 548.624 657.627 550.137 659.483 550.137C661.34 550.137 662.844 548.624 662.844 546.758C662.844 544.891 661.34 543.378 659.483 543.378Z" fill="white" fill-opacity="0.501961"/>
<path fill-rule="evenodd" clip-rule="evenodd" d="M680.003 543.378C678.147 543.378 676.642 544.891 676.642 546.758C676.642 548.624 678.147 550.137 680.003 550.137C681.859 550.137 683.364 548.624 683.364 546.758C683.364 544.891 681.859 543.378 680.003 543.378Z" fill="white" fill-opacity="0.501961"/>
<path fill-rule="evenodd" clip-rule="evenodd" d="M700.346 543.378C698.392 543.378 696.809 544.891 696.809 546.758C696.809 548.624 698.393 550.137 700.346 550.137C702.3 550.137 703.884 548.624 703.884 546.758C703.884 544.891 702.3 543.378 700.346 543.378Z" fill="white" fill-opacity="0.501961"/>
<path fill-rule="evenodd" clip-rule="evenodd" d="M720.689 543.378C718.833 543.378 717.328 544.891 717.328 546.758C717.328 548.624 718.833 550.137 720.689 550.137C722.545 550.137 724.05 548.624 724.05 546.758C724.05 544.891 722.545 543.378 720.689 543.378Z" fill="white" fill-opacity="0.501961"/>
<path fill-rule="evenodd" clip-rule="evenodd" d="M741.033 543.378C739.078 543.378 737.495 544.891 737.495 546.758C737.495 548.624 739.079 550.137 741.033 550.137C742.986 550.137 744.57 548.624 744.57 546.758C744.57 544.891 742.986 543.378 741.033 543.378Z" fill="white" fill-opacity="0.501961"/>
<path fill-rule="evenodd" clip-rule="evenodd" d="M618.797 563.656C616.941 563.656 615.436 565.17 615.436 567.036C615.436 568.902 616.941 570.415 618.797 570.415C620.654 570.415 622.158 568.902 622.158 567.036C622.158 565.17 620.654 563.656 618.797 563.656Z" fill="white" fill-opacity="0.501961"/>
<path fill-rule="evenodd" clip-rule="evenodd" d="M639.317 563.656C637.461 563.656 635.956 565.17 635.956 567.036C635.956 568.902 637.461 570.415 639.317 570.415C641.174 570.415 642.678 568.902 642.678 567.036C642.678 565.17 641.174 563.656 639.317 563.656Z" fill="white" fill-opacity="0.501961"/>
<path fill-rule="evenodd" clip-rule="evenodd" d="M662.844 567.036C662.844 568.902 661.34 570.415 659.483 570.415C657.627 570.415 656.122 568.902 656.122 567.036C656.122 565.169 657.627 563.656 659.483 563.656C661.34 563.656 662.844 565.169 662.844 567.036Z" fill="white" fill-opacity="0.501961"/>
<path fill-rule="evenodd" clip-rule="evenodd" d="M683.364 567.036C683.364 568.902 681.86 570.415 680.003 570.415C678.147 570.415 676.642 568.902 676.642 567.036C676.642 565.169 678.147 563.656 680.003 563.656C681.86 563.656 683.364 565.169 683.364 567.036Z" fill="white" fill-opacity="0.501961"/>
<path fill-rule="evenodd" clip-rule="evenodd" d="M700.346 563.656C698.392 563.656 696.809 565.17 696.809 567.036C696.809 568.902 698.393 570.415 700.346 570.415C702.3 570.415 703.884 568.902 703.884 567.036C703.884 565.17 702.3 563.656 700.346 563.656Z" fill="white" fill-opacity="0.501961"/>
<path fill-rule="evenodd" clip-rule="evenodd" d="M720.689 563.656C718.833 563.656 717.328 565.17 717.328 567.036C717.328 568.902 718.833 570.415 720.689 570.415C722.545 570.415 724.05 568.902 724.05 567.036C724.05 565.17 722.545 563.656 720.689 563.656Z" fill="white" fill-opacity="0.501961"/>
</g>
<mask id="mask2_1_2" style="mask-type:luminance" maskUnits="userSpaceOnUse" x="638" y="115" width="106" height="107">
<path d="M743.182 115.658H638.351V221.072H743.182V115.658Z" fill="white"/>
</mask>
<g mask="url(#mask2_1_2)">
<path fill-rule="evenodd" clip-rule="evenodd" d="M743.182 168.365C743.182 197.474 719.715 221.072 690.767 221.072C661.818 221.072 638.351 197.474 638.351 168.365C638.351 139.256 661.818 115.658 690.767 115.658C719.715 115.658 743.182 139.256 743.182 168.365Z" fill="#E4E4E4" fill-opacity="0.501961"/>
</g>
<mask id="mask3_1_2" style="mask-type:luminance" maskUnits="userSpaceOnUse" x="48" y="109" width="136" height="137">
<path d="M183.245 109.434H48.0121V245.416H183.245V109.434Z" fill="white"/>
</mask>
<g mask="url(#mask3_1_2)">
<path fill-rule="evenodd" clip-rule="evenodd" d="M183.245 177.425C183.245 214.976 152.972 245.416 115.628 245.416C78.2851 245.416 48.0121 214.976 48.0121 177.425C48.0121 139.874 78.2851 109.434 115.628 109.434C152.972 109.434 183.245 139.874 183.245 177.425Z" fill="#E4E4E4" fill-opacity="0.501961"/>
</g>
<mask id="mask4_1_2" style="mask-type:luminance" maskUnits="userSpaceOnUse" x="695" y="357" width="159" height="160">
<path d="M853.199 357.616H695.019V516.674H853.199V357.616Z" fill="white"/>
</mask>
<g mask="url(#mask4_1_2)">
<path fill-rule="evenodd" clip-rule="evenodd" d="M695.019 437.145C695.019 393.222 730.429 357.616 774.109 357.616C817.789 357.616 853.199 393.222 853.199 437.145C853.199 481.068 817.789 516.674 774.109 516.674C730.429 516.674 695.019 481.068 695.019 437.145ZM734.564 437.145C734.564 459.106 752.269 476.909 774.109 476.909C795.949 476.909 813.654 459.106 813.654 437.145C813.654 415.184 795.949 397.381 774.109 397.381C752.269 397.381 734.564 415.184 734.564 437.145Z" fill="white" fill-opacity="0.301961"/>
</g>
<mask id="mask5_1_2" style="mask-type:luminance" maskUnits="userSpaceOnUse" x="144" y="384" width="110" height="110">
<path d="M253.085 384.241H144.857V493.069H253.085V384.241Z" fill="white"/>
</mask>
<g mask="url(#mask5_1_2)">
<path fill-rule="evenodd" clip-rule="evenodd" d="M144.857 438.655C144.857 408.603 169.084 384.241 198.971 384.241C228.857 384.241 253.085 408.603 253.085 438.655C253.085 468.707 228.857 493.069 198.971 493.069C169.084 493.069 144.857 468.707 144.857 438.655ZM171.914 438.655C171.914 453.681 184.028 465.862 198.971 465.862C213.914 465.862 226.028 453.681 226.028 438.655C226.028 423.629 213.914 411.448 198.971 411.448C184.028 411.448 171.914 423.629 171.914 438.655Z" fill="white" fill-opacity="0.301961"/>
</g>
<path d="M-3.44197 391.746C-3.44197 391.746 64.4493 385.278 92.3421 415.954C105.518 430.446 100.891 440.459 115.818 464.521C121.569 473.788 145.865 512.952 184.264 522.059C232.332 533.46 258.125 487.235 297.648 502.206C323.97 512.177 319.895 535.47 356.314 548.954C376.179 556.309 387.972 554.925 401.285 565.123C416.961 577.132 415.972 604.699 415.972 604.699L-3.3697 604.927L-3.44197 391.746Z" fill="#E4E4E4" fill-opacity="0.500008"/>
</g>
<defs>
<linearGradient id="paint0_linear_1_2" x1="0" y1="0" x2="558.719" y2="833.454" gradientUnits="userSpaceOnUse">
<stop stop-color="#F26E35"/>
<stop offset="0.459155" stop-color="#F45356"/>
<stop offset="1" stop-color="#E73858"/>
</linearGradient>
<clipPath id="clip0_1_2">
<rect width="901" height="604" fill="white"/>
</clipPath>
</defs>
</svg>
