<svg width="2174" height="1396" viewBox="0 0 2174 1396" fill="none" xmlns="http://www.w3.org/2000/svg">
<g clip-path="url(#clip0_369_54)">
<rect width="2174" height="1396" fill="white"/>
<mask id="mask0_369_54" style="mask-type:luminance" maskUnits="userSpaceOnUse" x="0" y="0" width="2174" height="1396">
<path d="M2174 0H0V1396H2174V0Z" fill="white"/>
</mask>
<g mask="url(#mask0_369_54)">
<path d="M2174 0H0V1396H2174V0Z" fill="white"/>
<path d="M2174 0H0V1396H2174V0Z" fill="url(#paint0_linear_369_54)"/>
<path d="M834.84 470.804C834.84 470.804 665.222 485.302 595.806 413.843C563.015 380.084 574.655 356.866 537.566 300.871C523.277 279.304 462.915 188.16 367.085 166.713C247.119 139.864 182.324 247.018 83.7337 211.943C18.0721 188.583 28.4379 134.519 -62.4116 102.922C-111.967 85.6877 -141.431 88.8116 -174.601 65.0246C-213.656 37.014 -210.96 -27 -210.96 -27L836.391 -24.2891L834.84 470.804Z" fill="#E4E4E4" fill-opacity="0.500008"/>
<path d="M834.859 471.824C834.859 471.824 1004.39 487.358 1074.24 416.324C1107.23 382.767 1095.74 359.477 1133.16 303.71C1147.59 282.231 1208.5 191.458 1304.46 170.596C1424.59 144.481 1488.73 252.029 1587.53 217.556C1653.34 194.598 1643.3 140.472 1734.34 109.43C1784 92.4988 1813.45 95.8026 1846.76 72.2187C1885.98 44.4472 1883.68 -19.582 1883.68 -19.582L836.332 -23.2691L834.859 471.824Z" fill="#E4E4E4" fill-opacity="0.500008"/>
<mask id="mask1_369_54" style="mask-type:luminance" maskUnits="userSpaceOnUse" x="1386" y="876" width="460" height="443">
<path d="M1845.21 876.834H1386.8V1318.38H1845.21V876.834Z" fill="white"/>
</mask>
<g mask="url(#mask1_369_54)">
<path fill-rule="evenodd" clip-rule="evenodd" d="M1493.08 876.834C1488.6 876.834 1484.97 880.331 1484.97 884.644C1484.97 888.959 1488.6 892.456 1493.08 892.456C1497.56 892.456 1501.19 888.959 1501.19 884.644C1501.19 880.331 1497.56 876.834 1493.08 876.834Z" fill="white" fill-opacity="0.501961"/>
<path fill-rule="evenodd" clip-rule="evenodd" d="M1542.59 876.834C1538.11 876.834 1534.48 880.331 1534.48 884.644C1534.48 888.959 1538.11 892.456 1542.59 892.456C1547.07 892.456 1550.7 888.959 1550.7 884.644C1550.7 880.331 1547.07 876.834 1542.59 876.834Z" fill="white" fill-opacity="0.501961"/>
<path fill-rule="evenodd" clip-rule="evenodd" d="M1591.25 876.834C1586.77 876.834 1583.14 880.331 1583.14 884.644C1583.14 888.959 1586.77 892.456 1591.25 892.456C1595.73 892.456 1599.36 888.959 1599.36 884.644C1599.36 880.331 1595.73 876.834 1591.25 876.834Z" fill="white" fill-opacity="0.501961"/>
<path fill-rule="evenodd" clip-rule="evenodd" d="M1640.76 876.834C1636.28 876.834 1632.65 880.331 1632.65 884.644C1632.65 888.959 1636.28 892.456 1640.76 892.456C1645.24 892.456 1648.87 888.959 1648.87 884.644C1648.87 880.331 1645.24 876.834 1640.76 876.834Z" fill="white" fill-opacity="0.501961"/>
<path fill-rule="evenodd" clip-rule="evenodd" d="M1689.85 876.834C1685.13 876.834 1681.31 880.331 1681.31 884.644C1681.31 888.959 1685.13 892.456 1689.85 892.456C1694.56 892.456 1698.38 888.959 1698.38 884.644C1698.38 880.331 1694.56 876.834 1689.85 876.834Z" fill="white" fill-opacity="0.501961"/>
<path fill-rule="evenodd" clip-rule="evenodd" d="M1738.93 876.834C1734.45 876.834 1730.82 880.331 1730.82 884.644C1730.82 888.959 1734.45 892.456 1738.93 892.456C1743.41 892.456 1747.04 888.959 1747.04 884.644C1747.04 880.331 1743.41 876.834 1738.93 876.834Z" fill="white" fill-opacity="0.501961"/>
<path fill-rule="evenodd" clip-rule="evenodd" d="M1444.42 924.522C1439.94 924.522 1436.31 928.021 1436.31 932.334C1436.31 936.647 1439.94 940.146 1444.42 940.146C1448.9 940.146 1452.53 936.647 1452.53 932.334C1452.53 928.021 1448.9 924.522 1444.42 924.522Z" fill="white" fill-opacity="0.501961"/>
<path fill-rule="evenodd" clip-rule="evenodd" d="M1493.08 924.522C1488.6 924.522 1484.97 928.021 1484.97 932.334C1484.97 936.647 1488.6 940.146 1493.08 940.146C1497.56 940.146 1501.19 936.647 1501.19 932.334C1501.19 928.021 1497.56 924.522 1493.08 924.522Z" fill="white" fill-opacity="0.501961"/>
<path fill-rule="evenodd" clip-rule="evenodd" d="M1542.59 924.522C1538.11 924.522 1534.48 928.021 1534.48 932.334C1534.48 936.647 1538.11 940.146 1542.59 940.146C1547.07 940.146 1550.7 936.647 1550.7 932.334C1550.7 928.021 1547.07 924.522 1542.59 924.522Z" fill="white" fill-opacity="0.501961"/>
<path fill-rule="evenodd" clip-rule="evenodd" d="M1591.25 924.522C1586.77 924.522 1583.14 928.021 1583.14 932.334C1583.14 936.647 1586.77 940.146 1591.25 940.146C1595.73 940.146 1599.36 936.647 1599.36 932.334C1599.36 928.021 1595.73 924.522 1591.25 924.522Z" fill="white" fill-opacity="0.501961"/>
<path fill-rule="evenodd" clip-rule="evenodd" d="M1640.76 924.522C1636.28 924.522 1632.65 928.021 1632.65 932.334C1632.65 936.647 1636.28 940.146 1640.76 940.146C1645.24 940.146 1648.87 936.647 1648.87 932.334C1648.87 928.021 1645.24 924.522 1640.76 924.522Z" fill="white" fill-opacity="0.501961"/>
<path fill-rule="evenodd" clip-rule="evenodd" d="M1689.85 924.522C1685.13 924.522 1681.31 928.021 1681.31 932.334C1681.31 936.647 1685.13 940.146 1689.85 940.146C1694.56 940.146 1698.38 936.647 1698.38 932.334C1698.38 928.021 1694.56 924.522 1689.85 924.522Z" fill="white" fill-opacity="0.501961"/>
<path fill-rule="evenodd" clip-rule="evenodd" d="M1738.93 924.522C1734.45 924.522 1730.82 928.021 1730.82 932.334C1730.82 936.647 1734.45 940.146 1738.93 940.146C1743.41 940.146 1747.04 936.647 1747.04 932.334C1747.04 928.021 1743.41 924.522 1738.93 924.522Z" fill="white" fill-opacity="0.501961"/>
<path fill-rule="evenodd" clip-rule="evenodd" d="M1788.02 924.522C1783.3 924.522 1779.48 928.021 1779.48 932.334C1779.48 936.647 1783.3 940.146 1788.02 940.146C1792.73 940.146 1796.55 936.647 1796.55 932.334C1796.55 928.021 1792.73 924.522 1788.02 924.522Z" fill="white" fill-opacity="0.501961"/>
<path fill-rule="evenodd" clip-rule="evenodd" d="M1394.91 971.39C1390.43 971.39 1386.8 975.074 1386.8 979.613C1386.8 984.155 1390.43 987.837 1394.91 987.837C1399.39 987.837 1403.02 984.155 1403.02 979.613C1403.02 975.074 1399.39 971.39 1394.91 971.39Z" fill="white" fill-opacity="0.501961"/>
<path fill-rule="evenodd" clip-rule="evenodd" d="M1444.42 971.39C1439.94 971.39 1436.31 975.074 1436.31 979.613C1436.31 984.155 1439.94 987.837 1444.42 987.837C1448.9 987.837 1452.53 984.155 1452.53 979.613C1452.53 975.074 1448.9 971.39 1444.42 971.39Z" fill="white" fill-opacity="0.501961"/>
<path fill-rule="evenodd" clip-rule="evenodd" d="M1493.08 971.39C1488.6 971.39 1484.97 975.074 1484.97 979.613C1484.97 984.155 1488.6 987.837 1493.08 987.837C1497.56 987.837 1501.19 984.155 1501.19 979.613C1501.19 975.074 1497.56 971.39 1493.08 971.39Z" fill="white" fill-opacity="0.501961"/>
<path fill-rule="evenodd" clip-rule="evenodd" d="M1542.59 971.39C1538.11 971.39 1534.48 975.074 1534.48 979.613C1534.48 984.155 1538.11 987.837 1542.59 987.837C1547.07 987.837 1550.7 984.155 1550.7 979.613C1550.7 975.074 1547.07 971.39 1542.59 971.39Z" fill="white" fill-opacity="0.501961"/>
<path fill-rule="evenodd" clip-rule="evenodd" d="M1599.36 979.613C1599.36 984.155 1595.73 987.837 1591.25 987.837C1586.77 987.837 1583.14 984.155 1583.14 979.613C1583.14 975.072 1586.77 971.39 1591.25 971.39C1595.73 971.39 1599.36 975.072 1599.36 979.613Z" fill="white" fill-opacity="0.501961"/>
<path fill-rule="evenodd" clip-rule="evenodd" d="M1648.87 979.613C1648.87 984.155 1645.24 987.837 1640.76 987.837C1636.28 987.837 1632.65 984.155 1632.65 979.613C1632.65 975.072 1636.28 971.39 1640.76 971.39C1645.24 971.39 1648.87 975.072 1648.87 979.613Z" fill="white" fill-opacity="0.501961"/>
<path fill-rule="evenodd" clip-rule="evenodd" d="M1689.85 971.39C1685.13 971.39 1681.31 975.074 1681.31 979.613C1681.31 984.155 1685.13 987.837 1689.85 987.837C1694.56 987.837 1698.38 984.155 1698.38 979.613C1698.38 975.074 1694.56 971.39 1689.85 971.39Z" fill="white" fill-opacity="0.501961"/>
<path fill-rule="evenodd" clip-rule="evenodd" d="M1738.93 971.39C1734.45 971.39 1730.82 975.074 1730.82 979.613C1730.82 984.155 1734.45 987.837 1738.93 987.837C1743.41 987.837 1747.04 984.155 1747.04 979.613C1747.04 975.074 1743.41 971.39 1738.93 971.39Z" fill="white" fill-opacity="0.501961"/>
<path fill-rule="evenodd" clip-rule="evenodd" d="M1788.02 971.39C1783.3 971.39 1779.48 975.074 1779.48 979.613C1779.48 984.155 1783.3 987.837 1788.02 987.837C1792.73 987.837 1796.55 984.155 1796.55 979.613C1796.55 975.074 1792.73 971.39 1788.02 971.39Z" fill="white" fill-opacity="0.501961"/>
<path fill-rule="evenodd" clip-rule="evenodd" d="M1837.1 987.837C1841.58 987.837 1845.21 984.155 1845.21 979.613C1845.21 975.074 1841.58 971.39 1837.1 971.39C1832.62 971.39 1829 975.074 1829 979.613C1829 984.155 1832.62 987.837 1837.1 987.837Z" fill="white" fill-opacity="0.501961"/>
<path fill-rule="evenodd" clip-rule="evenodd" d="M1394.91 1019.08C1390.43 1019.08 1386.8 1022.58 1386.8 1026.89C1386.8 1031.21 1390.43 1034.7 1394.91 1034.7C1399.39 1034.7 1403.02 1031.21 1403.02 1026.89C1403.02 1022.58 1399.39 1019.08 1394.91 1019.08Z" fill="white" fill-opacity="0.501961"/>
<path fill-rule="evenodd" clip-rule="evenodd" d="M1444.42 1019.08C1439.94 1019.08 1436.31 1022.58 1436.31 1026.89C1436.31 1031.21 1439.94 1034.7 1444.42 1034.7C1448.9 1034.7 1452.53 1031.21 1452.53 1026.89C1452.53 1022.58 1448.9 1019.08 1444.42 1019.08Z" fill="white" fill-opacity="0.501961"/>
<path fill-rule="evenodd" clip-rule="evenodd" d="M1493.08 1019.08C1488.6 1019.08 1484.97 1022.58 1484.97 1026.89C1484.97 1031.21 1488.6 1034.7 1493.08 1034.7C1497.56 1034.7 1501.19 1031.21 1501.19 1026.89C1501.19 1022.58 1497.56 1019.08 1493.08 1019.08Z" fill="white" fill-opacity="0.501961"/>
<path fill-rule="evenodd" clip-rule="evenodd" d="M1542.59 1019.08C1538.11 1019.08 1534.48 1022.58 1534.48 1026.89C1534.48 1031.21 1538.11 1034.7 1542.59 1034.7C1547.07 1034.7 1550.7 1031.21 1550.7 1026.89C1550.7 1022.58 1547.07 1019.08 1542.59 1019.08Z" fill="white" fill-opacity="0.501961"/>
<path fill-rule="evenodd" clip-rule="evenodd" d="M1591.25 1019.08C1586.77 1019.08 1583.14 1022.58 1583.14 1026.89C1583.14 1031.21 1586.77 1034.7 1591.25 1034.7C1595.73 1034.7 1599.36 1031.21 1599.36 1026.89C1599.36 1022.58 1595.73 1019.08 1591.25 1019.08Z" fill="white" fill-opacity="0.501961"/>
<path fill-rule="evenodd" clip-rule="evenodd" d="M1640.76 1019.08C1636.28 1019.08 1632.65 1022.58 1632.65 1026.89C1632.65 1031.21 1636.28 1034.7 1640.76 1034.7C1645.24 1034.7 1648.87 1031.21 1648.87 1026.89C1648.87 1022.58 1645.24 1019.08 1640.76 1019.08Z" fill="white" fill-opacity="0.501961"/>
<path fill-rule="evenodd" clip-rule="evenodd" d="M1689.85 1019.08C1685.13 1019.08 1681.31 1022.58 1681.31 1026.89C1681.31 1031.21 1685.13 1034.7 1689.85 1034.7C1694.56 1034.7 1698.38 1031.21 1698.38 1026.89C1698.38 1022.58 1694.56 1019.08 1689.85 1019.08Z" fill="white" fill-opacity="0.501961"/>
<path fill-rule="evenodd" clip-rule="evenodd" d="M1738.93 1019.08C1734.45 1019.08 1730.82 1022.58 1730.82 1026.89C1730.82 1031.21 1734.45 1034.7 1738.93 1034.7C1743.41 1034.7 1747.04 1031.21 1747.04 1026.89C1747.04 1022.58 1743.41 1019.08 1738.93 1019.08Z" fill="white" fill-opacity="0.501961"/>
<path fill-rule="evenodd" clip-rule="evenodd" d="M1788.02 1019.08C1783.3 1019.08 1779.48 1022.58 1779.48 1026.89C1779.48 1031.21 1783.3 1034.7 1788.02 1034.7C1792.73 1034.7 1796.55 1031.21 1796.55 1026.89C1796.55 1022.58 1792.73 1019.08 1788.02 1019.08Z" fill="white" fill-opacity="0.501961"/>
<path fill-rule="evenodd" clip-rule="evenodd" d="M1837.1 1034.7C1841.58 1034.7 1845.21 1031.21 1845.21 1026.89C1845.21 1022.58 1841.58 1019.08 1837.1 1019.08C1832.62 1019.08 1829 1022.58 1829 1026.89C1829 1031.21 1832.62 1034.7 1837.1 1034.7Z" fill="white" fill-opacity="0.501961"/>
<path fill-rule="evenodd" clip-rule="evenodd" d="M1394.91 1065.95C1390.43 1065.95 1386.8 1069.63 1386.8 1074.17C1386.8 1078.71 1390.43 1082.39 1394.91 1082.39C1399.39 1082.39 1403.02 1078.71 1403.02 1074.17C1403.02 1069.63 1399.39 1065.95 1394.91 1065.95Z" fill="white" fill-opacity="0.501961"/>
<path fill-rule="evenodd" clip-rule="evenodd" d="M1444.42 1065.95C1439.94 1065.95 1436.31 1069.63 1436.31 1074.17C1436.31 1078.71 1439.94 1082.39 1444.42 1082.39C1448.9 1082.39 1452.53 1078.71 1452.53 1074.17C1452.53 1069.63 1448.9 1065.95 1444.42 1065.95Z" fill="white" fill-opacity="0.501961"/>
<path fill-rule="evenodd" clip-rule="evenodd" d="M1493.08 1065.95C1488.6 1065.95 1484.97 1069.63 1484.97 1074.17C1484.97 1078.71 1488.6 1082.39 1493.08 1082.39C1497.56 1082.39 1501.19 1078.71 1501.19 1074.17C1501.19 1069.63 1497.56 1065.95 1493.08 1065.95Z" fill="white" fill-opacity="0.501961"/>
<path fill-rule="evenodd" clip-rule="evenodd" d="M1542.59 1065.95C1538.11 1065.95 1534.48 1069.63 1534.48 1074.17C1534.48 1078.71 1538.11 1082.39 1542.59 1082.39C1547.07 1082.39 1550.7 1078.71 1550.7 1074.17C1550.7 1069.63 1547.07 1065.95 1542.59 1065.95Z" fill="white" fill-opacity="0.501961"/>
<path fill-rule="evenodd" clip-rule="evenodd" d="M1599.36 1074.17C1599.36 1078.71 1595.73 1082.39 1591.25 1082.39C1586.77 1082.39 1583.14 1078.71 1583.14 1074.17C1583.14 1069.63 1586.77 1065.95 1591.25 1065.95C1595.73 1065.95 1599.36 1069.63 1599.36 1074.17Z" fill="white" fill-opacity="0.501961"/>
<path fill-rule="evenodd" clip-rule="evenodd" d="M1648.87 1074.17C1648.87 1078.71 1645.24 1082.39 1640.76 1082.39C1636.28 1082.39 1632.65 1078.71 1632.65 1074.17C1632.65 1069.63 1636.28 1065.95 1640.76 1065.95C1645.24 1065.95 1648.87 1069.63 1648.87 1074.17Z" fill="white" fill-opacity="0.501961"/>
<path fill-rule="evenodd" clip-rule="evenodd" d="M1689.85 1065.95C1685.13 1065.95 1681.31 1069.63 1681.31 1074.17C1681.31 1078.71 1685.13 1082.39 1689.85 1082.39C1694.56 1082.39 1698.38 1078.71 1698.38 1074.17C1698.38 1069.63 1694.56 1065.95 1689.85 1065.95Z" fill="white" fill-opacity="0.501961"/>
<path fill-rule="evenodd" clip-rule="evenodd" d="M1738.93 1065.95C1734.45 1065.95 1730.82 1069.63 1730.82 1074.17C1730.82 1078.71 1734.45 1082.39 1738.93 1082.39C1743.41 1082.39 1747.04 1078.71 1747.04 1074.17C1747.04 1069.63 1743.41 1065.95 1738.93 1065.95Z" fill="white" fill-opacity="0.501961"/>
<path fill-rule="evenodd" clip-rule="evenodd" d="M1788.02 1065.95C1783.3 1065.95 1779.48 1069.63 1779.48 1074.17C1779.48 1078.71 1783.3 1082.39 1788.02 1082.39C1792.73 1082.39 1796.55 1078.71 1796.55 1074.17C1796.55 1069.63 1792.73 1065.95 1788.02 1065.95Z" fill="white" fill-opacity="0.501961"/>
<path fill-rule="evenodd" clip-rule="evenodd" d="M1837.1 1082.39C1841.58 1082.39 1845.21 1078.71 1845.21 1074.17C1845.21 1069.63 1841.58 1065.95 1837.1 1065.95C1832.62 1065.95 1829 1069.63 1829 1074.17C1829 1078.71 1832.62 1082.39 1837.1 1082.39Z" fill="white" fill-opacity="0.501961"/>
<path fill-rule="evenodd" clip-rule="evenodd" d="M1394.91 1113.64C1390.43 1113.64 1386.8 1117.14 1386.8 1121.45C1386.8 1125.76 1390.43 1129.26 1394.91 1129.26C1399.39 1129.26 1403.02 1125.76 1403.02 1121.45C1403.02 1117.14 1399.39 1113.64 1394.91 1113.64Z" fill="white" fill-opacity="0.501961"/>
<path fill-rule="evenodd" clip-rule="evenodd" d="M1444.42 1113.64C1439.94 1113.64 1436.31 1117.14 1436.31 1121.45C1436.31 1125.76 1439.94 1129.26 1444.42 1129.26C1448.9 1129.26 1452.53 1125.76 1452.53 1121.45C1452.53 1117.14 1448.9 1113.64 1444.42 1113.64Z" fill="white" fill-opacity="0.501961"/>
<path fill-rule="evenodd" clip-rule="evenodd" d="M1493.08 1113.64C1488.6 1113.64 1484.97 1117.14 1484.97 1121.45C1484.97 1125.76 1488.6 1129.26 1493.08 1129.26C1497.56 1129.26 1501.19 1125.76 1501.19 1121.45C1501.19 1117.14 1497.56 1113.64 1493.08 1113.64Z" fill="white" fill-opacity="0.501961"/>
<path fill-rule="evenodd" clip-rule="evenodd" d="M1542.59 1113.64C1538.11 1113.64 1534.48 1117.14 1534.48 1121.45C1534.48 1125.76 1538.11 1129.26 1542.59 1129.26C1547.07 1129.26 1550.7 1125.76 1550.7 1121.45C1550.7 1117.14 1547.07 1113.64 1542.59 1113.64Z" fill="white" fill-opacity="0.501961"/>
<path fill-rule="evenodd" clip-rule="evenodd" d="M1591.25 1113.64C1586.77 1113.64 1583.14 1117.14 1583.14 1121.45C1583.14 1125.76 1586.77 1129.26 1591.25 1129.26C1595.73 1129.26 1599.36 1125.76 1599.36 1121.45C1599.36 1117.14 1595.73 1113.64 1591.25 1113.64Z" fill="white" fill-opacity="0.501961"/>
<path fill-rule="evenodd" clip-rule="evenodd" d="M1640.76 1113.64C1636.28 1113.64 1632.65 1117.14 1632.65 1121.45C1632.65 1125.76 1636.28 1129.26 1640.76 1129.26C1645.24 1129.26 1648.87 1125.76 1648.87 1121.45C1648.87 1117.14 1645.24 1113.64 1640.76 1113.64Z" fill="white" fill-opacity="0.501961"/>
<path fill-rule="evenodd" clip-rule="evenodd" d="M1689.85 1113.64C1685.13 1113.64 1681.31 1117.14 1681.31 1121.45C1681.31 1125.76 1685.13 1129.26 1689.85 1129.26C1694.56 1129.26 1698.38 1125.76 1698.38 1121.45C1698.38 1117.14 1694.56 1113.64 1689.85 1113.64Z" fill="white" fill-opacity="0.501961"/>
<path fill-rule="evenodd" clip-rule="evenodd" d="M1738.93 1113.64C1734.45 1113.64 1730.82 1117.14 1730.82 1121.45C1730.82 1125.76 1734.45 1129.26 1738.93 1129.26C1743.41 1129.26 1747.04 1125.76 1747.04 1121.45C1747.04 1117.14 1743.41 1113.64 1738.93 1113.64Z" fill="white" fill-opacity="0.501961"/>
<path fill-rule="evenodd" clip-rule="evenodd" d="M1788.02 1113.64C1783.3 1113.64 1779.48 1117.14 1779.48 1121.45C1779.48 1125.76 1783.3 1129.26 1788.02 1129.26C1792.73 1129.26 1796.55 1125.76 1796.55 1121.45C1796.55 1117.14 1792.73 1113.64 1788.02 1113.64Z" fill="white" fill-opacity="0.501961"/>
<path fill-rule="evenodd" clip-rule="evenodd" d="M1837.1 1129.26C1841.58 1129.26 1845.21 1125.76 1845.21 1121.45C1845.21 1117.14 1841.58 1113.64 1837.1 1113.64C1832.62 1113.64 1829 1117.14 1829 1121.45C1829 1125.76 1832.62 1129.26 1837.1 1129.26Z" fill="white" fill-opacity="0.501961"/>
<path fill-rule="evenodd" clip-rule="evenodd" d="M1394.91 1161.33C1390.43 1161.33 1386.8 1164.83 1386.8 1169.14C1386.8 1173.45 1390.43 1176.95 1394.91 1176.95C1399.39 1176.95 1403.02 1173.45 1403.02 1169.14C1403.02 1164.83 1399.39 1161.33 1394.91 1161.33Z" fill="white" fill-opacity="0.501961"/>
<path fill-rule="evenodd" clip-rule="evenodd" d="M1444.42 1161.33C1439.94 1161.33 1436.31 1164.83 1436.31 1169.14C1436.31 1173.45 1439.94 1176.95 1444.42 1176.95C1448.9 1176.95 1452.53 1173.45 1452.53 1169.14C1452.53 1164.83 1448.9 1161.33 1444.42 1161.33Z" fill="white" fill-opacity="0.501961"/>
<path fill-rule="evenodd" clip-rule="evenodd" d="M1493.08 1161.33C1488.6 1161.33 1484.97 1164.83 1484.97 1169.14C1484.97 1173.45 1488.6 1176.95 1493.08 1176.95C1497.56 1176.95 1501.19 1173.45 1501.19 1169.14C1501.19 1164.83 1497.56 1161.33 1493.08 1161.33Z" fill="white" fill-opacity="0.501961"/>
<path fill-rule="evenodd" clip-rule="evenodd" d="M1542.59 1161.33C1538.11 1161.33 1534.48 1164.83 1534.48 1169.14C1534.48 1173.45 1538.11 1176.95 1542.59 1176.95C1547.07 1176.95 1550.7 1173.45 1550.7 1169.14C1550.7 1164.83 1547.07 1161.33 1542.59 1161.33Z" fill="white" fill-opacity="0.501961"/>
<path fill-rule="evenodd" clip-rule="evenodd" d="M1591.25 1161.33C1586.77 1161.33 1583.14 1164.83 1583.14 1169.14C1583.14 1173.45 1586.77 1176.95 1591.25 1176.95C1595.73 1176.95 1599.36 1173.45 1599.36 1169.14C1599.36 1164.83 1595.73 1161.33 1591.25 1161.33Z" fill="white" fill-opacity="0.501961"/>
<path fill-rule="evenodd" clip-rule="evenodd" d="M1640.76 1161.33C1636.28 1161.33 1632.65 1164.83 1632.65 1169.14C1632.65 1173.45 1636.28 1176.95 1640.76 1176.95C1645.24 1176.95 1648.87 1173.45 1648.87 1169.14C1648.87 1164.83 1645.24 1161.33 1640.76 1161.33Z" fill="white" fill-opacity="0.501961"/>
<path fill-rule="evenodd" clip-rule="evenodd" d="M1689.85 1161.33C1685.13 1161.33 1681.31 1164.83 1681.31 1169.14C1681.31 1173.45 1685.13 1176.95 1689.85 1176.95C1694.56 1176.95 1698.38 1173.45 1698.38 1169.14C1698.38 1164.83 1694.56 1161.33 1689.85 1161.33Z" fill="white" fill-opacity="0.501961"/>
<path fill-rule="evenodd" clip-rule="evenodd" d="M1738.93 1161.33C1734.45 1161.33 1730.82 1164.83 1730.82 1169.14C1730.82 1173.45 1734.45 1176.95 1738.93 1176.95C1743.41 1176.95 1747.04 1173.45 1747.04 1169.14C1747.04 1164.83 1743.41 1161.33 1738.93 1161.33Z" fill="white" fill-opacity="0.501961"/>
<path fill-rule="evenodd" clip-rule="evenodd" d="M1788.02 1161.33C1783.3 1161.33 1779.48 1164.83 1779.48 1169.14C1779.48 1173.45 1783.3 1176.95 1788.02 1176.95C1792.73 1176.95 1796.55 1173.45 1796.55 1169.14C1796.55 1164.83 1792.73 1161.33 1788.02 1161.33Z" fill="white" fill-opacity="0.501961"/>
<path fill-rule="evenodd" clip-rule="evenodd" d="M1837.1 1176.95C1841.58 1176.95 1845.21 1173.45 1845.21 1169.14C1845.21 1164.83 1841.58 1161.33 1837.1 1161.33C1832.62 1161.33 1829 1164.83 1829 1169.14C1829 1173.45 1832.62 1176.95 1837.1 1176.95Z" fill="white" fill-opacity="0.501961"/>
<path fill-rule="evenodd" clip-rule="evenodd" d="M1394.91 1208.2C1390.43 1208.2 1386.8 1211.7 1386.8 1216.01C1386.8 1220.32 1390.43 1223.82 1394.91 1223.82C1399.39 1223.82 1403.02 1220.32 1403.02 1216.01C1403.02 1211.7 1399.39 1208.2 1394.91 1208.2Z" fill="white" fill-opacity="0.501961"/>
<path fill-rule="evenodd" clip-rule="evenodd" d="M1444.42 1208.2C1439.94 1208.2 1436.31 1211.7 1436.31 1216.01C1436.31 1220.32 1439.94 1223.82 1444.42 1223.82C1448.9 1223.82 1452.53 1220.32 1452.53 1216.01C1452.53 1211.7 1448.9 1208.2 1444.42 1208.2Z" fill="white" fill-opacity="0.501961"/>
<path fill-rule="evenodd" clip-rule="evenodd" d="M1493.08 1208.2C1488.6 1208.2 1484.97 1211.7 1484.97 1216.01C1484.97 1220.32 1488.6 1223.82 1493.08 1223.82C1497.56 1223.82 1501.19 1220.32 1501.19 1216.01C1501.19 1211.7 1497.56 1208.2 1493.08 1208.2Z" fill="white" fill-opacity="0.501961"/>
<path fill-rule="evenodd" clip-rule="evenodd" d="M1542.59 1208.2C1538.11 1208.2 1534.48 1211.7 1534.48 1216.01C1534.48 1220.32 1538.11 1223.82 1542.59 1223.82C1547.07 1223.82 1550.7 1220.32 1550.7 1216.01C1550.7 1211.7 1547.07 1208.2 1542.59 1208.2Z" fill="white" fill-opacity="0.501961"/>
<path fill-rule="evenodd" clip-rule="evenodd" d="M1599.36 1216.01C1599.36 1220.32 1595.73 1223.82 1591.25 1223.82C1586.77 1223.82 1583.14 1220.32 1583.14 1216.01C1583.14 1211.69 1586.77 1208.2 1591.25 1208.2C1595.73 1208.2 1599.36 1211.69 1599.36 1216.01Z" fill="white" fill-opacity="0.501961"/>
<path fill-rule="evenodd" clip-rule="evenodd" d="M1648.87 1216.01C1648.87 1220.32 1645.24 1223.82 1640.76 1223.82C1636.28 1223.82 1632.65 1220.32 1632.65 1216.01C1632.65 1211.69 1636.28 1208.2 1640.76 1208.2C1645.24 1208.2 1648.87 1211.69 1648.87 1216.01Z" fill="white" fill-opacity="0.501961"/>
<path fill-rule="evenodd" clip-rule="evenodd" d="M1689.85 1208.2C1685.13 1208.2 1681.31 1211.7 1681.31 1216.01C1681.31 1220.32 1685.13 1223.82 1689.85 1223.82C1694.56 1223.82 1698.38 1220.32 1698.38 1216.01C1698.38 1211.7 1694.56 1208.2 1689.85 1208.2Z" fill="white" fill-opacity="0.501961"/>
<path fill-rule="evenodd" clip-rule="evenodd" d="M1738.93 1208.2C1734.45 1208.2 1730.82 1211.7 1730.82 1216.01C1730.82 1220.32 1734.45 1223.82 1738.93 1223.82C1743.41 1223.82 1747.04 1220.32 1747.04 1216.01C1747.04 1211.7 1743.41 1208.2 1738.93 1208.2Z" fill="white" fill-opacity="0.501961"/>
<path fill-rule="evenodd" clip-rule="evenodd" d="M1788.02 1208.2C1783.3 1208.2 1779.48 1211.7 1779.48 1216.01C1779.48 1220.32 1783.3 1223.82 1788.02 1223.82C1792.73 1223.82 1796.55 1220.32 1796.55 1216.01C1796.55 1211.7 1792.73 1208.2 1788.02 1208.2Z" fill="white" fill-opacity="0.501961"/>
<path fill-rule="evenodd" clip-rule="evenodd" d="M1837.1 1223.82C1841.58 1223.82 1845.21 1220.32 1845.21 1216.01C1845.21 1211.69 1841.58 1208.2 1837.1 1208.2C1832.62 1208.2 1829 1211.7 1829 1216.01C1829 1220.32 1832.62 1223.82 1837.1 1223.82Z" fill="white" fill-opacity="0.501961"/>
<path fill-rule="evenodd" clip-rule="evenodd" d="M1444.42 1255.89C1439.94 1255.89 1436.31 1259.38 1436.31 1263.7C1436.31 1268.01 1439.94 1271.51 1444.42 1271.51C1448.9 1271.51 1452.53 1268.01 1452.53 1263.7C1452.53 1259.38 1448.9 1255.89 1444.42 1255.89Z" fill="white" fill-opacity="0.501961"/>
<path fill-rule="evenodd" clip-rule="evenodd" d="M1493.08 1255.89C1488.6 1255.89 1484.97 1259.38 1484.97 1263.7C1484.97 1268.01 1488.6 1271.51 1493.08 1271.51C1497.56 1271.51 1501.19 1268.01 1501.19 1263.7C1501.19 1259.38 1497.56 1255.89 1493.08 1255.89Z" fill="white" fill-opacity="0.501961"/>
<path fill-rule="evenodd" clip-rule="evenodd" d="M1542.59 1255.89C1538.11 1255.89 1534.48 1259.38 1534.48 1263.7C1534.48 1268.01 1538.11 1271.51 1542.59 1271.51C1547.07 1271.51 1550.7 1268.01 1550.7 1263.7C1550.7 1259.38 1547.07 1255.89 1542.59 1255.89Z" fill="white" fill-opacity="0.501961"/>
<path fill-rule="evenodd" clip-rule="evenodd" d="M1591.25 1255.89C1586.77 1255.89 1583.14 1259.38 1583.14 1263.7C1583.14 1268.01 1586.77 1271.51 1591.25 1271.51C1595.73 1271.51 1599.36 1268.01 1599.36 1263.7C1599.36 1259.38 1595.73 1255.89 1591.25 1255.89Z" fill="white" fill-opacity="0.501961"/>
<path fill-rule="evenodd" clip-rule="evenodd" d="M1640.76 1255.89C1636.28 1255.89 1632.65 1259.38 1632.65 1263.7C1632.65 1268.01 1636.28 1271.51 1640.76 1271.51C1645.24 1271.51 1648.87 1268.01 1648.87 1263.7C1648.87 1259.38 1645.24 1255.89 1640.76 1255.89Z" fill="white" fill-opacity="0.501961"/>
<path fill-rule="evenodd" clip-rule="evenodd" d="M1689.85 1255.89C1685.13 1255.89 1681.31 1259.38 1681.31 1263.7C1681.31 1268.01 1685.13 1271.51 1689.85 1271.51C1694.56 1271.51 1698.38 1268.01 1698.38 1263.7C1698.38 1259.38 1694.56 1255.89 1689.85 1255.89Z" fill="white" fill-opacity="0.501961"/>
<path fill-rule="evenodd" clip-rule="evenodd" d="M1738.93 1255.89C1734.45 1255.89 1730.82 1259.38 1730.82 1263.7C1730.82 1268.01 1734.45 1271.51 1738.93 1271.51C1743.41 1271.51 1747.04 1268.01 1747.04 1263.7C1747.04 1259.38 1743.41 1255.89 1738.93 1255.89Z" fill="white" fill-opacity="0.501961"/>
<path fill-rule="evenodd" clip-rule="evenodd" d="M1788.02 1255.89C1783.3 1255.89 1779.48 1259.38 1779.48 1263.7C1779.48 1268.01 1783.3 1271.51 1788.02 1271.51C1792.73 1271.51 1796.55 1268.01 1796.55 1263.7C1796.55 1259.38 1792.73 1255.89 1788.02 1255.89Z" fill="white" fill-opacity="0.501961"/>
<path fill-rule="evenodd" clip-rule="evenodd" d="M1493.08 1302.75C1488.6 1302.75 1484.97 1306.25 1484.97 1310.57C1484.97 1314.88 1488.6 1318.38 1493.08 1318.38C1497.56 1318.38 1501.19 1314.88 1501.19 1310.57C1501.19 1306.25 1497.56 1302.75 1493.08 1302.75Z" fill="white" fill-opacity="0.501961"/>
<path fill-rule="evenodd" clip-rule="evenodd" d="M1542.59 1302.75C1538.11 1302.75 1534.48 1306.25 1534.48 1310.57C1534.48 1314.88 1538.11 1318.38 1542.59 1318.38C1547.07 1318.38 1550.7 1314.88 1550.7 1310.57C1550.7 1306.25 1547.07 1302.75 1542.59 1302.75Z" fill="white" fill-opacity="0.501961"/>
<path fill-rule="evenodd" clip-rule="evenodd" d="M1599.36 1310.57C1599.36 1314.88 1595.73 1318.38 1591.25 1318.38C1586.77 1318.38 1583.14 1314.88 1583.14 1310.57C1583.14 1306.25 1586.77 1302.75 1591.25 1302.75C1595.73 1302.75 1599.36 1306.25 1599.36 1310.57Z" fill="white" fill-opacity="0.501961"/>
<path fill-rule="evenodd" clip-rule="evenodd" d="M1648.87 1310.57C1648.87 1314.88 1645.24 1318.38 1640.76 1318.38C1636.28 1318.38 1632.65 1314.88 1632.65 1310.57C1632.65 1306.25 1636.28 1302.75 1640.76 1302.75C1645.24 1302.75 1648.87 1306.25 1648.87 1310.57Z" fill="white" fill-opacity="0.501961"/>
<path fill-rule="evenodd" clip-rule="evenodd" d="M1689.85 1302.75C1685.13 1302.75 1681.31 1306.25 1681.31 1310.57C1681.31 1314.88 1685.13 1318.38 1689.85 1318.38C1694.56 1318.38 1698.38 1314.88 1698.38 1310.57C1698.38 1306.25 1694.56 1302.75 1689.85 1302.75Z" fill="white" fill-opacity="0.501961"/>
<path fill-rule="evenodd" clip-rule="evenodd" d="M1738.93 1302.75C1734.45 1302.75 1730.82 1306.25 1730.82 1310.57C1730.82 1314.88 1734.45 1318.38 1738.93 1318.38C1743.41 1318.38 1747.04 1314.88 1747.04 1310.57C1747.04 1306.25 1743.41 1302.75 1738.93 1302.75Z" fill="white" fill-opacity="0.501961"/>
</g>
<mask id="mask2_369_54" style="mask-type:luminance" maskUnits="userSpaceOnUse" x="1202" y="200" width="253" height="244">
<path d="M1454.94 200H1202V443.639H1454.94V200Z" fill="white"/>
</mask>
<g mask="url(#mask2_369_54)">
<path fill-rule="evenodd" clip-rule="evenodd" d="M1454.94 321.82C1454.94 389.098 1398.32 443.639 1328.47 443.639C1258.62 443.639 1202 389.098 1202 321.82C1202 254.541 1258.62 200 1328.47 200C1398.32 200 1454.94 254.541 1454.94 321.82Z" fill="#E4E4E4" fill-opacity="0.501961"/>
</g>
<mask id="mask3_369_54" style="mask-type:luminance" maskUnits="userSpaceOnUse" x="1676" y="826" width="383" height="369">
<path d="M2058.66 826.543H1676.99V1194.17H2058.66V826.543Z" fill="white"/>
</mask>
<g mask="url(#mask3_369_54)">
<path fill-rule="evenodd" clip-rule="evenodd" d="M1676.99 1010.36C1676.99 908.838 1762.43 826.543 1867.83 826.543C1973.22 826.543 2058.66 908.838 2058.66 1010.36C2058.66 1111.87 1973.22 1194.17 1867.83 1194.17C1762.43 1194.17 1676.99 1111.87 1676.99 1010.36ZM1772.41 1010.36C1772.41 1061.11 1815.13 1102.26 1867.83 1102.26C1920.53 1102.26 1963.25 1061.11 1963.25 1010.36C1963.25 959.598 1920.53 918.45 1867.83 918.45C1815.13 918.45 1772.41 959.598 1772.41 1010.36Z" fill="white" fill-opacity="0.301961"/>
</g>
<mask id="mask4_369_54" style="mask-type:luminance" maskUnits="userSpaceOnUse" x="349" y="888" width="262" height="252">
<path d="M610.662 888.081H349.522V1139.61H610.662V888.081Z" fill="white"/>
</mask>
<g mask="url(#mask4_369_54)">
<path fill-rule="evenodd" clip-rule="evenodd" d="M349.522 1013.85C349.522 944.387 407.978 888.081 480.092 888.081C552.203 888.081 610.662 944.387 610.662 1013.85C610.662 1083.3 552.203 1139.61 480.092 1139.61C407.978 1139.61 349.522 1083.3 349.522 1013.85ZM414.807 1013.85C414.807 1048.57 444.036 1076.73 480.092 1076.73C516.148 1076.73 545.377 1048.57 545.377 1013.85C545.377 979.116 516.148 950.963 480.092 950.963C444.036 950.963 414.807 979.116 414.807 1013.85Z" fill="white" fill-opacity="0.301961"/>
</g>
<mask id="mask5_369_54" style="mask-type:luminance" maskUnits="userSpaceOnUse" x="349" y="888" width="262" height="252">
<path d="M610.662 888.081H349.522V1139.61H610.662V888.081Z" fill="white"/>
</mask>
<g mask="url(#mask5_369_54)">
<path fill-rule="evenodd" clip-rule="evenodd" d="M349.522 1013.85C349.522 944.387 407.978 888.081 480.092 888.081C552.203 888.081 610.662 944.387 610.662 1013.85C610.662 1083.3 552.203 1139.61 480.092 1139.61C407.978 1139.61 349.522 1083.3 349.522 1013.85ZM414.807 1013.85C414.807 1048.57 444.036 1076.73 480.092 1076.73C516.148 1076.73 545.377 1048.57 545.377 1013.85C545.377 979.116 516.148 950.963 480.092 950.963C444.036 950.963 414.807 979.116 414.807 1013.85Z" fill="white" fill-opacity="0.301961"/>
</g>
<path d="M-8.30505 905.427C-8.30505 905.427 155.508 890.477 222.81 961.377C254.602 994.872 243.437 1018.01 279.454 1073.63C293.331 1095.05 351.954 1185.56 444.606 1206.61C560.588 1232.96 622.823 1126.13 718.187 1160.73C781.699 1183.77 771.866 1237.61 859.741 1268.77C907.673 1285.77 936.128 1282.58 968.25 1306.15C1006.07 1333.9 1003.69 1397.62 1003.69 1397.62L-8.13067 1398.14L-8.30505 905.427Z" fill="#E4E4E4" fill-opacity="0.500008"/>
</g>
</g>
<defs>
<linearGradient id="paint0_linear_369_54" x1="0" y1="0" x2="1269.41" y2="1976.87" gradientUnits="userSpaceOnUse">
<stop stop-color="#F26E35"/>
<stop offset="0.459155" stop-color="#F45356"/>
<stop offset="1" stop-color="#E73858"/>
</linearGradient>
<clipPath id="clip0_369_54">
<rect width="2174" height="1396" fill="white"/>
</clipPath>
</defs>
</svg>
