<svg width="310" height="185" viewBox="0 0 310 185" fill="none" xmlns="http://www.w3.org/2000/svg">
<g opacity="0.919">
<path fill-rule="evenodd" clip-rule="evenodd" d="M178.848 0.252112C184.868 -0.693833 189.938 1.02217 194.06 5.40011C198.88 16.8669 203.448 28.4499 207.772 40.1491C209.237 45.5047 207.879 50.0092 203.701 53.6626C196.455 58.7154 189.385 58.358 182.49 52.5901C181.92 51.7321 181.346 50.8741 180.776 50.0161C176.491 38.8574 172.206 27.7034 167.921 16.5541C166.97 8.02216 170.612 2.58802 178.848 0.252112Z" fill="url(#paint0_linear_372_637)"/>
<path fill-rule="evenodd" clip-rule="evenodd" d="M121.429 1.11007C126.935 -0.165772 132.077 0.763871 136.855 3.89857C138.188 5.21131 139.259 6.71281 140.069 8.40307C143.925 18.4129 147.782 28.4232 151.638 38.4331C154.569 46.9389 151.925 53.0165 143.711 56.6656C136.898 58.9328 131.113 57.4313 126.357 52.1611C121.022 39.636 116.236 26.9093 112.002 13.9801C112.186 10.7789 113.33 7.99038 115.43 5.61457C113.845 4.57897 114.059 4.36447 116.073 4.97107C117.988 3.44727 119.775 2.16027 121.429 1.11007Z" fill="url(#paint1_linear_372_637)"/>
<path fill-rule="evenodd" clip-rule="evenodd" d="M76.8647 19.5571C85.3919 19.7999 93.9619 19.8716 102.575 19.7716C109.911 21.5065 113.909 26.1539 114.573 33.7141C113.763 41.4614 109.619 46.3949 102.146 48.5146C111.218 67.0401 120.002 85.7016 128.499 104.499C131.563 116.741 126.849 123.891 114.358 125.949C108.372 125.308 103.946 122.305 101.075 116.94C93.9404 101.223 86.5831 85.636 79.0072 70.1791C62.0343 105.878 44.8258 141.483 27.373 177C22.8437 183.268 16.7762 185.344 9.16173 183.221C1.81295 179.304 -1.1137 173.225 0.377475 164.988C22.1024 118.472 44.243 72.1397 66.795 25.9921C69.4645 22.694 72.8197 20.549 76.8647 19.5571Z" fill="url(#paint2_linear_372_637)"/>
<path fill-rule="evenodd" clip-rule="evenodd" d="M221.698 19.9862C229.188 18.9339 235.542 21.0789 240.766 26.4212C263.198 71.3362 285.908 116.238 308.897 161.127C309.754 165.846 309.754 170.565 308.897 175.284C306.571 179.759 302.928 182.406 297.971 183.221C264.119 183.508 230.268 183.508 196.416 183.221C188.862 180.325 185.502 174.817 186.346 166.704C188.018 160.312 192.088 156.378 198.559 154.907C200.645 154.799 202.719 154.585 204.772 154.263C227.684 154.761 250.609 154.834 273.546 154.478C255.356 119.561 237.574 84.4542 220.198 49.1582C218.878 47.96 217.378 47.0304 215.699 46.3697C207.883 38.7747 207.741 31.0527 215.27 23.2037C217.301 21.7927 219.444 20.7202 221.698 19.9862Z" fill="url(#paint3_linear_372_637)"/>
<path fill-rule="evenodd" clip-rule="evenodd" d="M148.425 70.6082C152.752 71.0209 156.108 73.0226 158.494 76.6142C161.091 82.1251 163.521 87.7021 165.779 93.3452C166.529 97.6326 164.746 99.9921 160.423 100.424C155.281 100.71 150.139 100.71 144.997 100.424C141.89 99.4533 139.387 97.6656 137.498 95.0612C134.901 89.2675 132.476 83.4044 130.213 77.4722C129.506 74.4293 130.577 72.3559 133.427 71.2517C138.5 71.1792 143.501 70.9647 148.425 70.6082Z" fill="url(#paint4_linear_372_637)"/>
<path fill-rule="evenodd" clip-rule="evenodd" d="M195.988 70.6082C201.704 70.5365 207.416 70.6082 213.128 70.8227C216.843 71.7883 219.774 73.8617 221.912 77.0432C224.727 82.2538 227.444 87.5447 230.054 92.9162C230.958 96.6167 229.599 98.9762 225.983 99.9947C220.554 100.281 215.129 100.281 209.7 99.9947C205.92 98.9295 202.99 96.7132 200.916 93.3452C198.109 88.0153 195.538 82.5811 193.203 77.0432C192.448 74.0754 193.374 71.9303 195.988 70.6082Z" fill="url(#paint5_linear_372_637)"/>
<path fill-rule="evenodd" clip-rule="evenodd" d="M164.707 71.0371C170.423 70.9655 176.135 71.0371 181.847 71.2516C185.34 72.1765 188.125 74.1071 190.203 77.0431C193.271 82.9663 195.911 89.0435 198.13 95.2756C197.967 98.0165 196.536 99.7325 193.845 100.424C188.275 100.71 182.704 100.71 177.134 100.424C173.397 99.3794 170.612 97.1628 168.778 93.7741C165.92 87.9093 163.422 81.9033 161.279 75.7561C161.494 73.4507 162.638 71.8775 164.707 71.0371Z" fill="url(#paint6_linear_372_637)"/>
<path fill-rule="evenodd" clip-rule="evenodd" d="M221.698 104.07C228.614 102.991 234.54 104.85 239.481 109.647C243.569 116.543 247.065 123.693 249.979 131.097C249.225 135.061 246.795 136.846 242.695 136.46C238.123 136.747 233.555 136.747 228.983 136.46C225.319 135.662 222.388 133.731 220.198 130.668C217.237 125.172 214.384 119.595 211.628 113.937C210.664 111.733 210.381 109.446 210.771 107.073C211.106 106.307 211.607 105.663 212.271 105.143C215.459 104.688 218.6 104.331 221.698 104.07Z" fill="url(#paint7_linear_372_637)"/>
<path fill-rule="evenodd" clip-rule="evenodd" d="M156.137 104.499C159.733 104.358 163.306 104.572 166.85 105.143C169.678 106.095 172.035 107.739 173.92 110.076C176.744 115.874 179.456 121.738 182.062 127.665C183.639 134.246 180.995 137.318 174.134 136.889C169.849 137.176 165.564 137.176 161.279 136.889C156.296 135.619 152.936 132.543 151.21 127.665C149.354 123.089 147.495 118.513 145.639 113.937C145.005 111.974 144.864 109.972 145.211 107.931C145.541 106.885 146.183 106.098 147.139 105.572C150.168 105.102 153.168 104.745 156.137 104.499Z" fill="url(#paint8_linear_372_637)"/>
<path fill-rule="evenodd" clip-rule="evenodd" d="M195.131 104.499C200.659 104.674 204.871 107.105 207.772 111.792C210.484 117.512 213.201 123.232 215.913 128.952C217.122 133.182 215.622 135.825 211.414 136.889C205.844 137.176 200.273 137.176 194.703 136.889C190.923 135.825 187.992 133.607 185.918 130.239C182.589 123.65 179.804 116.857 177.563 109.862C177.558 107.438 178.698 105.865 180.991 105.143C185.777 105.07 190.49 104.855 195.131 104.499Z" fill="url(#paint9_linear_372_637)"/>
<path fill-rule="evenodd" clip-rule="evenodd" d="M140.711 153.834C151.505 153.337 157.646 158.485 159.137 169.278C158.395 176.099 154.826 180.745 148.424 183.221C138.629 185.421 132.133 181.775 128.927 172.281C127.578 166.301 129.223 161.367 133.855 157.481C136.015 155.949 138.299 154.735 140.711 153.834Z" fill="url(#paint10_linear_372_637)"/>
</g>
<defs>
<linearGradient id="paint0_linear_372_637" x1="154.77" y1="0" x2="154.77" y2="184.026" gradientUnits="userSpaceOnUse">
<stop stop-color="#E73858"/>
<stop offset="0.442308" stop-color="#F45356"/>
<stop offset="1" stop-color="#F26E35"/>
</linearGradient>
<linearGradient id="paint1_linear_372_637" x1="154.77" y1="0" x2="154.77" y2="184.026" gradientUnits="userSpaceOnUse">
<stop stop-color="#E73858"/>
<stop offset="0.442308" stop-color="#F45356"/>
<stop offset="1" stop-color="#F26E35"/>
</linearGradient>
<linearGradient id="paint2_linear_372_637" x1="154.77" y1="0" x2="154.77" y2="184.026" gradientUnits="userSpaceOnUse">
<stop stop-color="#E73858"/>
<stop offset="0.442308" stop-color="#F45356"/>
<stop offset="1" stop-color="#F26E35"/>
</linearGradient>
<linearGradient id="paint3_linear_372_637" x1="154.77" y1="0" x2="154.77" y2="184.026" gradientUnits="userSpaceOnUse">
<stop stop-color="#E73858"/>
<stop offset="0.442308" stop-color="#F45356"/>
<stop offset="1" stop-color="#F26E35"/>
</linearGradient>
<linearGradient id="paint4_linear_372_637" x1="154.77" y1="0" x2="154.77" y2="184.026" gradientUnits="userSpaceOnUse">
<stop stop-color="#E73858"/>
<stop offset="0.442308" stop-color="#F45356"/>
<stop offset="1" stop-color="#F26E35"/>
</linearGradient>
<linearGradient id="paint5_linear_372_637" x1="154.77" y1="0" x2="154.77" y2="184.026" gradientUnits="userSpaceOnUse">
<stop stop-color="#E73858"/>
<stop offset="0.442308" stop-color="#F45356"/>
<stop offset="1" stop-color="#F26E35"/>
</linearGradient>
<linearGradient id="paint6_linear_372_637" x1="154.77" y1="0" x2="154.77" y2="184.026" gradientUnits="userSpaceOnUse">
<stop stop-color="#E73858"/>
<stop offset="0.442308" stop-color="#F45356"/>
<stop offset="1" stop-color="#F26E35"/>
</linearGradient>
<linearGradient id="paint7_linear_372_637" x1="154.77" y1="0" x2="154.77" y2="184.026" gradientUnits="userSpaceOnUse">
<stop stop-color="#E73858"/>
<stop offset="0.442308" stop-color="#F45356"/>
<stop offset="1" stop-color="#F26E35"/>
</linearGradient>
<linearGradient id="paint8_linear_372_637" x1="154.77" y1="0" x2="154.77" y2="184.026" gradientUnits="userSpaceOnUse">
<stop stop-color="#E73858"/>
<stop offset="0.442308" stop-color="#F45356"/>
<stop offset="1" stop-color="#F26E35"/>
</linearGradient>
<linearGradient id="paint9_linear_372_637" x1="154.77" y1="0" x2="154.77" y2="184.026" gradientUnits="userSpaceOnUse">
<stop stop-color="#E73858"/>
<stop offset="0.442308" stop-color="#F45356"/>
<stop offset="1" stop-color="#F26E35"/>
</linearGradient>
<linearGradient id="paint10_linear_372_637" x1="154.77" y1="0" x2="154.77" y2="184.026" gradientUnits="userSpaceOnUse">
<stop stop-color="#E73858"/>
<stop offset="0.442308" stop-color="#F45356"/>
<stop offset="1" stop-color="#F26E35"/>
</linearGradient>
</defs>
</svg>
